<svg width="21" height="21" viewBox="0 0 21 21" fill="none" xmlns="http://www.w3.org/2000/svg">
<g clip-path="url(#clip0_52_906)">
<path d="M7.58333 2.91666H2.33333C1.71449 2.91666 1.121 3.16249 0.683418 3.60007C0.245833 4.03766 0 4.63115 0 5.24999L0 10.5H7.58333V2.91666ZM4.86325 8.33699L3.76542 7.53957L2.66758 8.33699L3.087 7.04666L1.98917 6.24866H3.346L3.76542 4.95832L4.18483 6.24866H5.54167L4.44383 7.04666L4.86325 8.33699Z" fill="#1F429B"/>
<path d="M18.6666 2.91666H7.58325V10.5H20.9999V5.24999C20.9999 4.63115 20.7541 4.03766 20.3165 3.60007C19.8789 3.16249 19.2854 2.91666 18.6666 2.91666Z" fill="#EEEEEE"/>
<path d="M0 10.5V15.75C0 16.3688 0.245833 16.9623 0.683417 17.3999C1.121 17.8375 1.71449 18.0833 2.33333 18.0833H18.6667C19.2855 18.0833 19.879 17.8375 20.3166 17.3999C20.7542 16.9623 21 16.3688 21 15.75V10.5H0Z" fill="#D42D27"/>
<path d="M0 10.5V15.75C0 16.3688 0.245833 16.9623 0.683417 17.3999C1.121 17.8375 1.71449 18.0833 2.33333 18.0833H18.6667C19.2855 18.0833 19.879 17.8375 20.3166 17.3999C20.7542 16.9623 21 16.3688 21 15.75V10.5H0Z" fill="#D42D27"/>
<path d="M4.18492 6.24868L3.76551 4.95834L3.34609 6.24868H1.98926L3.08709 7.04668L2.66767 8.33701L3.76551 7.53959L4.86334 8.33701L4.44392 7.04668L5.54176 6.24868H4.18492Z" fill="white"/>
</g>
<defs>
<clipPath id="clip0_52_906">
<rect width="21" height="21" fill="white"/>
</clipPath>
</defs>
</svg>
