<svg width="110" height="125" viewBox="0 0 110 125" fill="none" xmlns="http://www.w3.org/2000/svg">
<g clip-path="url(#clip0_205_248)">
<path d="M0 0H37.7391C36.3239 14.7688 35.2528 43.9271 41.513 50.6086C51.8913 61.6852 48.4318 65.1228 46.0732 74.4806C44.1862 81.9669 46.8594 91.7321 48.4318 95.679C46.4191 98.1235 44.1338 96.9521 43.2427 96.0609C39.8462 100.186 37.3198 97.5251 36.4811 95.679C33.0846 98.1235 30.5582 94.6604 29.7195 92.6234C20.2848 90.3316 21.7 77.7272 21.5427 52.9003C21.4169 33.0388 7.1285 9.35782 0 0Z" fill="white"/>
<path d="M29.7195 92.6234C20.2848 90.3316 21.7 77.7272 21.5427 52.9004C21.4169 33.0388 7.1285 9.35782 0 0H37.7391C36.3239 14.7688 35.2528 43.9271 41.513 50.6086C51.8913 61.6852 48.4318 65.1228 46.0732 74.4806C44.1862 81.9669 46.8594 91.7321 48.4318 95.679C46.4191 98.1235 44.1338 96.9521 43.2427 96.0609M29.7195 92.6234C29.7195 92.6234 28.2729 88.5747 28.1471 84.6024M29.7195 92.6234C30.5582 94.6604 33.0846 98.1235 36.4811 95.679M36.4811 95.679C35.7997 94.2785 34.3111 90.1025 33.8079 84.6024M36.4811 95.679C37.3198 97.5251 39.8462 100.186 43.2427 96.0609M43.2427 96.0609C42.0372 94.2148 39.5946 89.3386 39.4688 84.6024" stroke="#232121" stroke-width="2.94221"/>
<path d="M41.9847 58.4387L49.6897 60.5394C60.068 69.1333 57.8665 77.3453 60.5397 80.4009C62.6783 82.8454 109.562 124.752 106.89 124.752H91.3909H68.944C65.0443 115.28 51.996 98.0343 48.1173 95.488C44.595 88.0017 45.2868 77.7272 46.0731 73.5258L39.3115 67.2236C33.7764 69.8208 31.9733 64.9955 31.7637 62.2582C34.028 61.4943 39.5212 59.3935 41.9847 58.4387Z" fill="white" stroke="#232121" stroke-width="2.94221"/>
<path d="M21.3703 62.8183C22.2031 63.1051 23.0548 63.1512 23.7722 62.9416C24.4811 62.7345 25.1749 62.2294 25.3847 61.3308C25.5945 60.4322 25.2223 59.56 24.7084 58.9317C24.1883 58.296 23.4435 57.7923 22.6107 57.5055C21.7779 57.2187 20.9262 57.1726 20.2088 57.3822C19.4999 57.5893 18.8061 58.0944 18.5963 58.993C18.3865 59.8917 18.7587 60.7638 19.2726 61.3921C19.7927 62.0278 20.5375 62.5315 21.3703 62.8183Z" fill="white" stroke="#232121" stroke-width="2.05954"/>
<path d="M21.8588 71.0337C22.8883 71.2198 23.9005 71.1215 24.7129 70.7585C25.5163 70.3995 26.2394 69.7152 26.365 68.6901C26.4906 67.6649 25.9628 66.7545 25.2803 66.127C24.5901 65.4925 23.6454 65.0406 22.6158 64.8545C21.5863 64.6685 20.5741 64.7668 19.7617 65.1298C18.9583 65.4887 18.2352 66.173 18.1096 67.1982C17.984 68.2234 18.5118 69.1337 19.1943 69.7612C19.8844 70.3957 20.8292 70.8477 21.8588 71.0337Z" fill="white" stroke="#232121" stroke-width="2.05954"/>
<path d="M22.4366 78.494C23.4726 78.4623 24.4531 78.1651 25.2019 77.6557C25.9395 77.154 26.5717 76.3478 26.5505 75.3201C26.5292 74.2923 25.8643 73.5258 25.107 73.0697C24.338 72.6066 23.3464 72.3697 22.3104 72.4013C21.2744 72.4329 20.2939 72.7301 19.5451 73.2395C18.8075 73.7413 18.1753 74.5474 18.1965 75.5752C18.2178 76.6029 18.8827 77.3695 19.64 77.8256C20.409 78.2886 21.4006 78.5256 22.4366 78.494Z" fill="white" stroke="#232121" stroke-width="2.05954"/>
<path d="M23.7276 84.0249C24.4783 83.7824 25.1574 83.3429 25.6382 82.775C26.113 82.2142 26.4736 81.4155 26.2893 80.574C26.1051 79.7324 25.4654 79.2567 24.8241 79.0564C24.1745 78.8535 23.4053 78.8817 22.6546 79.1241C21.9039 79.3666 21.2248 79.8061 20.744 80.374C20.2692 80.9348 19.9086 81.7335 20.0929 82.575C20.2772 83.4166 20.9168 83.8923 21.5581 84.0926C22.2077 84.2955 22.9769 84.2673 23.7276 84.0249Z" fill="white" stroke="#232121" stroke-width="2.05954"/>
</g>
<defs>
<clipPath id="clip0_205_248">
<rect width="110" height="125" fill="white"/>
</clipPath>
</defs>
</svg>
