<svg width="54" height="54" viewBox="0 0 54 54" fill="none" xmlns="http://www.w3.org/2000/svg">
<g clip-path="url(#clip0_52_798)">
<path d="M42.1875 1.6875C41.7209 1.6875 41.3438 2.06466 41.3438 2.53125V3.375V5.0625V8.4375C41.3438 8.90409 41.7209 9.28125 42.1875 9.28125C42.6541 9.28125 43.0312 8.90409 43.0312 8.4375V5.0625V3.375V2.53125C43.0312 2.06466 42.6541 1.6875 42.1875 1.6875Z" fill="#4AC9B4"/>
<path d="M11.8125 1.6875C11.3459 1.6875 10.9688 2.06466 10.9688 2.53125V3.375V5.0625V8.4375C10.9688 8.90409 11.3459 9.28125 11.8125 9.28125C12.2791 9.28125 12.6562 8.90409 12.6562 8.4375V5.0625V3.375V2.53125C12.6562 2.06466 12.2791 1.6875 11.8125 1.6875Z" fill="#4AC9B4"/>
<path d="M52.3125 50.625C52.3125 51.5565 51.5565 52.3125 50.625 52.3125H3.375C2.4435 52.3125 1.6875 51.5565 1.6875 50.625V14.3438H52.3125V50.625Z" fill="#E8E8E8"/>
<path d="M52.3125 12.6562H1.6875V6.75C1.6875 5.8185 2.4435 5.0625 3.375 5.0625H9.28125V8.4375C9.28125 9.83559 10.4144 10.9688 11.8125 10.9688C13.2106 10.9688 14.3438 9.83559 14.3438 8.4375V5.0625H39.6562V8.4375C39.6562 9.83559 40.7894 10.9688 42.1875 10.9688C43.5856 10.9688 44.7188 9.83559 44.7188 8.4375V5.0625H50.625C51.5565 5.0625 52.3125 5.8185 52.3125 6.75V12.6562Z" fill="#E8E8E8"/>
<path d="M9.28125 45.5625H14.3438C14.8103 45.5625 15.1875 45.1853 15.1875 44.7188V40.5C15.1875 40.0334 14.8103 39.6562 14.3438 39.6562H9.28125C8.81466 39.6562 8.4375 40.0334 8.4375 40.5V44.7188C8.4375 45.1853 8.81466 45.5625 9.28125 45.5625ZM10.125 41.3438H13.5V43.875H10.125V41.3438Z" fill="#232121"/>
<path d="M19.4062 45.5625H24.4688C24.9353 45.5625 25.3125 45.1853 25.3125 44.7188V40.5C25.3125 40.0334 24.9353 39.6562 24.4688 39.6562H19.4062C18.9397 39.6562 18.5625 40.0334 18.5625 40.5V44.7188C18.5625 45.1853 18.9397 45.5625 19.4062 45.5625ZM20.25 41.3438H23.625V43.875H20.25V41.3438Z" fill="#232121"/>
<path d="M29.5312 45.5625H34.5938C35.0603 45.5625 35.4375 45.1853 35.4375 44.7188V40.5C35.4375 40.0334 35.0603 39.6562 34.5938 39.6562H29.5312C29.0647 39.6562 28.6875 40.0334 28.6875 40.5V44.7188C28.6875 45.1853 29.0647 45.5625 29.5312 45.5625ZM30.375 41.3438H33.75V43.875H30.375V41.3438Z" fill="#232121"/>
<path d="M9.28125 36.2812H14.3438C14.8103 36.2812 15.1875 35.9041 15.1875 35.4375V31.2188C15.1875 30.7522 14.8103 30.375 14.3438 30.375H9.28125C8.81466 30.375 8.4375 30.7522 8.4375 31.2188V35.4375C8.4375 35.9041 8.81466 36.2812 9.28125 36.2812ZM10.125 32.0625H13.5V34.5938H10.125V32.0625Z" fill="#232121"/>
<path d="M19.4062 36.2812H24.4688C24.9353 36.2812 25.3125 35.9041 25.3125 35.4375V31.2188C25.3125 30.7522 24.9353 30.375 24.4688 30.375H19.4062C18.9397 30.375 18.5625 30.7522 18.5625 31.2188V35.4375C18.5625 35.9041 18.9397 36.2812 19.4062 36.2812ZM20.25 32.0625H23.625V34.5938H20.25V32.0625Z" fill="#232121"/>
<path d="M29.5312 36.2812H34.5938C35.0603 36.2812 35.4375 35.9041 35.4375 35.4375V31.2188C35.4375 30.7522 35.0603 30.375 34.5938 30.375H29.5312C29.0647 30.375 28.6875 30.7522 28.6875 31.2188V35.4375C28.6875 35.9041 29.0647 36.2812 29.5312 36.2812ZM30.375 32.0625H33.75V34.5938H30.375V32.0625Z" fill="#232121"/>
<path d="M39.6562 36.2812H44.7188C45.1853 36.2812 45.5625 35.9041 45.5625 35.4375V31.2188C45.5625 30.7522 45.1853 30.375 44.7188 30.375H39.6562C39.1897 30.375 38.8125 30.7522 38.8125 31.2188V35.4375C38.8125 35.9041 39.1897 36.2812 39.6562 36.2812ZM40.5 32.0625H43.875V34.5938H40.5V32.0625Z" fill="#232121"/>
<path d="M9.28125 27H14.3438C14.8103 27 15.1875 26.6228 15.1875 26.1562V21.9375C15.1875 21.4709 14.8103 21.0938 14.3438 21.0938H9.28125C8.81466 21.0938 8.4375 21.4709 8.4375 21.9375V26.1562C8.4375 26.6228 8.81466 27 9.28125 27ZM10.125 22.7812H13.5V25.3125H10.125V22.7812Z" fill="#232121"/>
<path d="M19.4062 27H24.4688C24.9353 27 25.3125 26.6228 25.3125 26.1562V21.9375C25.3125 21.4709 24.9353 21.0938 24.4688 21.0938H19.4062C18.9397 21.0938 18.5625 21.4709 18.5625 21.9375V26.1562C18.5625 26.6228 18.9397 27 19.4062 27ZM20.25 22.7812H23.625V25.3125H20.25V22.7812Z" fill="#232121"/>
<path d="M29.5312 27H34.5938C35.0603 27 35.4375 26.6228 35.4375 26.1562V21.9375C35.4375 21.4709 35.0603 21.0938 34.5938 21.0938H29.5312C29.0647 21.0938 28.6875 21.4709 28.6875 21.9375V26.1562C28.6875 26.6228 29.0647 27 29.5312 27ZM30.375 22.7812H33.75V25.3125H30.375V22.7812Z" fill="#232121"/>
<path d="M39.6562 27H44.7188C45.1853 27 45.5625 26.6228 45.5625 26.1562V21.9375C45.5625 21.4709 45.1853 21.0938 44.7188 21.0938H39.6562C39.1897 21.0938 38.8125 21.4709 38.8125 21.9375V26.1562C38.8125 26.6228 39.1897 27 39.6562 27ZM40.5 22.7812H43.875V25.3125H40.5V22.7812Z" fill="#232121"/>
<path d="M50.625 3.375H44.7188V2.53125C44.7188 1.13316 43.5856 0 42.1875 0C40.7894 0 39.6562 1.13316 39.6562 2.53125V3.375H14.3438V2.53125C14.3438 1.13316 13.2106 0 11.8125 0C10.4144 0 9.28125 1.13316 9.28125 2.53125V3.375H3.375C1.50947 3.375 0 4.88447 0 6.75V50.625C0 52.4905 1.50947 54 3.375 54H50.625C52.4905 54 54 52.4905 54 50.625V6.75C54 4.88447 52.4905 3.375 50.625 3.375ZM41.3438 2.53125C41.3438 2.06466 41.7209 1.6875 42.1875 1.6875C42.6541 1.6875 43.0312 2.06466 43.0312 2.53125V8.4375C43.0312 8.90409 42.6541 9.28125 42.1875 9.28125C41.7209 9.28125 41.3438 8.90409 41.3438 8.4375V2.53125ZM10.9688 2.53125C10.9688 2.06466 11.3459 1.6875 11.8125 1.6875C12.2791 1.6875 12.6562 2.06466 12.6562 2.53125V8.4375C12.6562 8.90409 12.2791 9.28125 11.8125 9.28125C11.3459 9.28125 10.9688 8.90409 10.9688 8.4375V2.53125ZM52.3125 50.625C52.3125 51.5565 51.5565 52.3125 50.625 52.3125H3.375C2.4435 52.3125 1.6875 51.5565 1.6875 50.625V14.3438H52.3125V50.625ZM52.3125 12.6562H1.6875V6.75C1.6875 5.8185 2.4435 5.0625 3.375 5.0625H9.28125V8.4375C9.28125 9.83559 10.4144 10.9688 11.8125 10.9688C13.2106 10.9688 14.3438 9.83559 14.3438 8.4375V5.0625H39.6562V8.4375C39.6562 9.83559 40.7894 10.9688 42.1875 10.9688C43.5856 10.9688 44.7188 9.83559 44.7188 8.4375V5.0625H50.625C51.5565 5.0625 52.3125 5.8185 52.3125 6.75V12.6562Z" fill="#232121"/>
<path d="M13.5 22.7812H10.125V25.3125H13.5V22.7812Z" fill="#4AC9B4"/>
<path d="M23.625 22.7812H20.25V25.3125H23.625V22.7812Z" fill="#4AC9B4"/>
<path d="M33.75 22.7812H30.375V25.3125H33.75V22.7812Z" fill="#4AC9B4"/>
<path d="M43.875 22.7812H40.5V25.3125H43.875V22.7812Z" fill="#4AC9B4"/>
<path d="M13.5 32.0625H10.125V34.5938H13.5V32.0625Z" fill="#4AC9B4"/>
<path d="M23.625 32.0625H20.25V34.5938H23.625V32.0625Z" fill="#4AC9B4"/>
<path d="M33.75 32.0625H30.375V34.5938H33.75V32.0625Z" fill="#4AC9B4"/>
<path d="M43.875 32.0625H40.5V34.5938H43.875V32.0625Z" fill="#4AC9B4"/>
<path d="M13.5 41.3438H10.125V43.875H13.5V41.3438Z" fill="#4AC9B4"/>
<path d="M23.625 41.3438H20.25V43.875H23.625V41.3438Z" fill="#4AC9B4"/>
<path d="M33.75 41.3438H30.375V43.875H33.75V41.3438Z" fill="#4AC9B4"/>
</g>
<defs>
<clipPath id="clip0_52_798">
<rect width="54" height="54" fill="white"/>
</clipPath>
</defs>
</svg>
