<svg width="54" height="54" viewBox="0 0 54 54" fill="none" xmlns="http://www.w3.org/2000/svg">
<path d="M26.9987 48.9375C39.1139 48.9375 48.9351 39.1157 48.9351 27C48.9351 14.8843 39.1139 5.0625 26.9987 5.0625C14.8835 5.0625 5.06226 14.8843 5.06226 27C5.06226 39.1157 14.8835 48.9375 26.9987 48.9375Z" fill="#E8E8E8"/>
<path d="M26.9987 0C12.0878 0 0 12.0884 0 27C0 41.9116 12.0878 54 26.9987 54C41.9096 54 53.9974 41.9116 53.9974 27C53.9974 12.0884 41.9096 0 26.9987 0ZM26.9987 52.3125C13.0193 52.3125 1.68742 40.9793 1.68742 27C1.68742 13.0199 13.0193 1.6875 26.9987 1.6875C40.9781 1.6875 52.31 13.0199 52.31 27C52.31 40.9793 40.9781 52.3125 26.9987 52.3125Z" fill="#232121"/>
<path d="M26.9987 27.8438C27.4647 27.8438 27.8424 27.466 27.8424 27C27.8424 26.534 27.4647 26.1562 26.9987 26.1562C26.5328 26.1562 26.155 26.534 26.155 27C26.155 27.466 26.5328 27.8438 26.9987 27.8438Z" fill="#232121"/>
<path d="M31.159 27.5805C31.1852 27.389 31.2172 27.1991 31.2172 27C31.2172 25.6238 30.549 24.4147 29.5298 23.6436V11.8125C29.5298 10.4144 28.3967 9.28125 26.9987 9.28125C25.6007 9.28125 24.4676 10.4144 24.4676 11.8125V23.6436C23.4484 24.4139 22.7802 25.6238 22.7802 27C22.7802 29.3304 24.6684 31.2188 26.9987 31.2188C27.197 31.2188 27.3876 31.1867 27.5792 31.1605L34.7549 38.3366C35.7437 39.3255 37.3451 39.3247 38.3339 38.3358C39.3228 37.3469 39.3228 35.7455 38.3339 34.7566L31.159 27.5805ZM26.155 11.8125C26.155 11.3459 26.5321 10.9688 26.9987 10.9688C27.4653 10.9688 27.8424 11.3459 27.8424 11.8125V22.8665C27.5699 22.8108 27.2881 22.7812 26.9987 22.7812C26.7093 22.7812 26.4275 22.8108 26.155 22.8665V11.8125ZM24.4676 27C24.4676 25.6019 25.6007 24.4688 26.9987 24.4688C28.3967 24.4688 29.5298 25.6019 29.5298 27C29.5298 28.3981 28.3967 29.5312 26.9987 29.5312C25.6007 29.5312 24.4676 28.3981 24.4676 27ZM37.1409 37.1427C36.811 37.4735 36.2778 37.4735 35.9479 37.1436L29.3223 30.5176C29.7964 30.2037 30.2023 29.7979 30.5161 29.3237L37.1409 35.9497C37.47 36.2787 37.47 36.8128 37.1409 37.1427Z" fill="#232121"/>
<path d="M26.9987 3.375C13.9516 3.375 3.37488 13.9523 3.37488 27C3.37488 40.0477 13.9516 50.625 26.9987 50.625C40.0459 50.625 50.6226 40.0477 50.6226 27C50.6226 13.9523 40.0459 3.375 26.9987 3.375ZM43.0925 41.9006L41.3182 40.1254C40.9866 39.7963 40.4534 39.7963 40.1243 40.1254C39.7944 40.4561 39.7944 40.9885 40.1243 41.3193L41.8995 43.0945C38.1796 46.5413 33.2641 48.7114 27.8433 48.9164L27.8441 46.4071C27.8424 45.9405 27.4653 45.5633 27.0004 45.5633C26.533 45.5642 26.1567 45.9405 26.1567 46.4071L26.1559 48.9164C20.735 48.7114 15.8196 46.5421 12.0997 43.0962L13.8748 41.321C14.2039 40.9902 14.2039 40.457 13.8748 40.1279C13.5433 39.798 13.0117 39.798 12.6818 40.1279L10.9067 41.9032C7.46096 38.1831 5.29094 33.2674 5.08508 27.8463H7.59427C8.06084 27.8454 8.43798 27.4683 8.43798 27.0025C8.43713 26.5351 8.06084 26.1588 7.59427 26.1588H5.08339C5.28841 20.7377 7.45759 15.8212 10.9033 12.1011L12.6785 13.8763C13.0084 14.2062 13.5416 14.2062 13.8715 13.8763C14.2014 13.5456 14.2014 13.0132 13.8715 12.6832L12.0963 10.908C15.8162 7.46128 20.7325 5.29116 26.1533 5.08612V7.59375C26.1533 8.06034 26.5305 8.4375 26.9971 8.4375C27.4636 8.4375 27.8408 8.06034 27.8408 7.59375V5.08359C33.2616 5.28863 38.1779 7.45791 41.8978 10.9046L40.1226 12.6799C39.7928 13.0098 39.7928 13.543 40.1226 13.8729C40.4525 14.2028 40.9858 14.2028 41.3156 13.8729L43.0917 12.0977C46.5374 15.8178 48.7074 20.7343 48.9124 26.1554H46.4041C45.9375 26.1554 45.5603 26.5326 45.5603 26.9992C45.5603 27.4657 45.9375 27.8429 46.4041 27.8429H48.9141C48.7082 33.2648 46.5391 38.1805 43.0925 41.9006Z" fill="#232121"/>
<path d="M26.9987 1.6875C13.0201 1.6875 1.68738 13.0207 1.68738 27C1.68738 40.9793 13.0201 52.3125 26.9987 52.3125C40.9772 52.3125 52.3099 40.9793 52.3099 27C52.3099 13.0207 40.9772 1.6875 26.9987 1.6875ZM26.9987 50.625C13.9515 50.625 3.3748 40.0477 3.3748 27C3.3748 13.9523 13.9515 3.375 26.9987 3.375C40.0458 3.375 50.6225 13.9523 50.6225 27C50.6225 40.0477 40.0458 50.625 26.9987 50.625Z" fill="#232121"/>
<path d="M26.9987 24.4688C25.6006 24.4688 24.4675 25.6019 24.4675 27C24.4675 28.3981 25.6006 29.5312 26.9987 29.5312C28.3967 29.5312 29.5298 28.3981 29.5298 27C29.5298 25.6019 28.3967 24.4688 26.9987 24.4688ZM26.9987 27.8438C26.5321 27.8438 26.1549 27.4666 26.1549 27C26.1549 26.5334 26.5321 26.1562 26.9987 26.1562C27.4652 26.1562 27.8424 26.5334 27.8424 27C27.8424 27.4666 27.4652 27.8438 26.9987 27.8438Z" fill="#232121"/>
<path d="M37.1409 35.9488L30.5161 29.3228C30.2023 29.797 29.7956 30.2029 29.3231 30.5159L35.9488 37.1427C36.1133 37.3073 36.3284 37.3899 36.5444 37.3899C36.7604 37.3899 36.9764 37.3073 37.1409 37.1419C37.47 36.8128 37.47 36.2787 37.1409 35.9488Z" fill="#4AC9B4"/>
<path d="M26.9987 10.9688C26.5322 10.9688 26.155 11.3459 26.155 11.8125V22.8665C26.4275 22.8108 26.7093 22.7812 26.9987 22.7812C27.2881 22.7812 27.5699 22.8108 27.8424 22.8665V11.8125C27.8424 11.3459 27.4653 10.9688 26.9987 10.9688Z" fill="#4AC9B4"/>
</svg>
