<svg xmlns="http://www.w3.org/2000/svg" width="101" height="28" viewBox="0 0 101 28" fill="none">
<path d="M0 11.8747V7.92847H13.8592V11.8747H9.1762V27.6428H4.68299V11.8747H0Z" fill="white"/>
<path d="M27.8861 22.1002H18.9945C18.9945 22.9598 19.2736 23.5989 19.8318 24.0147C20.3899 24.4278 20.9941 24.6343 21.6458 24.6343C22.3295 24.6343 22.871 24.5436 23.27 24.3608C23.6677 24.1752 24.1212 23.8124 24.632 23.2724L27.6907 24.8017C26.4181 26.9339 24.2999 28 21.3388 28C19.4885 28 17.9019 27.3679 16.5777 26.1022C15.2562 24.838 14.5962 23.3142 14.5962 21.5309C14.5962 19.7448 15.2562 18.2154 16.5777 16.9428C17.9019 15.6674 19.4885 15.0283 21.3388 15.0283C23.2812 15.0283 24.8608 15.5906 26.0776 16.7139C27.2972 17.8345 27.9084 19.4378 27.9084 21.5253C27.9084 21.8128 27.9 22.0039 27.8861 22.1002ZM19.1173 19.7559H23.7724C23.6789 19.1196 23.4277 18.6312 23.0189 18.288C22.6128 17.9461 22.0923 17.7745 21.456 17.7745C20.7555 17.7745 20.1974 17.9586 19.7815 18.327C19.3685 18.6926 19.1466 19.1685 19.1173 19.7559Z" fill="white"/>
<path d="M36.4148 18.4889C35.6181 18.4889 34.9315 18.7847 34.3552 19.3764C33.7817 19.9652 33.4957 20.6741 33.4957 21.503C33.4957 22.3486 33.7817 23.0644 34.3552 23.6519C34.9315 24.2408 35.6181 24.5338 36.4148 24.5338C36.7944 24.5338 37.1544 24.4878 37.4977 24.3943C37.8396 24.298 38.0907 24.2017 38.2512 24.104L38.4689 23.9645L39.9034 26.9004C39.7917 26.9827 39.6354 27.0832 39.4345 27.2018C39.2364 27.3218 38.7829 27.4837 38.0726 27.6874C37.3651 27.8953 36.6046 28 35.7897 28C33.9924 28 32.41 27.3679 31.0453 26.1022C29.6834 24.838 29.0024 23.3198 29.0024 21.5476C29.0024 19.7657 29.6834 18.2349 31.0453 16.954C32.41 15.6702 33.9924 15.0283 35.7897 15.0283C36.6046 15.0283 37.354 15.1232 38.0391 15.313C38.7228 15.5027 39.2084 15.6953 39.4959 15.8879L39.9034 16.1725L38.4689 19.0638C37.94 18.6815 37.2549 18.4889 36.4148 18.4889Z" fill="white"/>
<path d="M41.6201 27.6428V7.09122H45.851V16.6749H45.8956C46.9966 15.5781 48.1674 15.0283 49.4065 15.0283C50.0121 15.0283 50.6135 15.1092 51.2094 15.2683C51.808 15.4246 52.3829 15.6702 52.9341 16.0051C53.4839 16.34 53.9304 16.8144 54.2737 17.4284C54.6155 18.0424 54.7872 18.7554 54.7872 19.5662V27.6428H50.5563V20.716C50.5563 20.0769 50.3526 19.5187 49.9479 19.0415C49.5418 18.5615 49.0116 18.3215 48.3571 18.3215C47.7208 18.3215 47.1431 18.5698 46.6268 19.0638C46.1091 19.5592 45.851 20.1104 45.851 20.716V27.6428H41.6201Z" fill="white"/>
<path d="M56.167 11.8747V7.92847H70.0262V11.8747H65.3432V27.6428H60.85V11.8747H56.167Z" fill="white"/>
<path d="M72.8061 26.186C71.4441 24.9775 70.7632 23.4259 70.7632 21.5309C70.7632 19.6331 71.4721 18.0759 72.8898 16.8591C74.3075 15.6395 76.0601 15.0283 78.1477 15.0283C80.2045 15.0283 81.9376 15.6423 83.3442 16.8702C84.7535 18.0954 85.4596 19.6471 85.4596 21.5253C85.4596 23.4049 84.7703 24.9552 83.3944 26.1748C82.0171 27.3916 80.2687 28 78.1477 28C75.9513 28 74.1708 27.3958 72.8061 26.186ZM76.0825 19.4489C75.5313 19.989 75.2564 20.6811 75.2564 21.5253C75.2564 22.3709 75.5187 23.0603 76.0434 23.5961C76.5709 24.1291 77.2658 24.3943 78.1254 24.3943C78.9542 24.3943 79.6352 24.125 80.1682 23.5849C80.6999 23.0421 80.9664 22.3556 80.9664 21.5253C80.9664 20.6811 80.6901 19.989 80.1403 19.4489C79.5933 18.9061 78.9207 18.634 78.1254 18.634C77.3132 18.634 76.6323 18.9061 76.0825 19.4489Z" fill="white"/>
<path d="M87.4424 27.6428V15.3855H91.6733V16.6749H91.7179C92.8189 15.5781 93.9896 15.0283 95.2288 15.0283C95.8344 15.0283 96.4358 15.1092 97.0316 15.2683C97.6303 15.4246 98.2052 15.6702 98.7563 16.0051C99.3061 16.34 99.7527 16.8144 100.096 17.4284C100.438 18.0424 100.609 18.7554 100.609 19.5662V27.6428H96.3786V20.716C96.3786 20.0769 96.1748 19.5187 95.7702 19.0415C95.3641 18.5615 94.8339 18.3215 94.1794 18.3215C93.5431 18.3215 92.9654 18.5698 92.4491 19.0638C91.9314 19.5592 91.6733 20.1104 91.6733 20.716V27.6428H87.4424Z" fill="white"/>
<mask id="mask0_658_1562" style="mask-type:luminance" maskUnits="userSpaceOnUse" x="76" y="2" width="12" height="11">
<path d="M78.6353 3.2867H77.6353V4.2867V10.7167V11.7167H78.6353H85.4225H86.4225V10.7167V4.2867V3.2867H85.4225H78.6353Z" fill="white" stroke="white" stroke-width="2"/>
</mask>
<g mask="url(#mask0_658_1562)">
<mask id="mask1_658_1562" style="mask-type:luminance" maskUnits="userSpaceOnUse" x="73" y="-2" width="18" height="19">
<path d="M77.7532 -1.50703L90.5742 3.21642L85.8508 16.0374L73.0298 11.314L77.7532 -1.50703Z" fill="white"/>
</mask>
<g mask="url(#mask1_658_1562)">
<mask id="mask2_658_1562" style="mask-type:luminance" maskUnits="userSpaceOnUse" x="73" y="-2" width="18" height="18">
<path d="M77.7713 -1.55865L90.5937 3.1648L85.8702 15.9858L73.0479 11.2623L77.7713 -1.55865Z" fill="white"/>
</mask>
<g mask="url(#mask2_658_1562)">
<path d="M85.0065 6.04632C84.7135 5.48118 84.1107 5.31792 83.5162 5.44211C83.1688 5.51328 82.8353 5.66677 82.538 5.85934C82.3678 5.96958 82.2297 6.09098 82.1041 6.23052C82.0622 5.73096 81.6729 5.19652 81.3282 4.90627C80.8259 4.48347 80.1449 4.3816 79.5895 4.75836C79.0146 5.14768 78.7314 5.85376 78.7956 6.53053C78.8597 7.21149 79.2212 7.84361 79.5728 8.41293C79.7779 8.74644 79.9886 9.08273 80.2007 9.41344C80.3193 9.59484 80.4254 9.78322 80.537 9.96602C80.5314 10.1097 80.6263 10.266 80.7742 10.3191C80.837 10.3805 80.9445 10.3735 81.0087 10.3177C81.6966 10.0693 82.3915 9.83346 83.0516 9.51251C83.7269 9.18459 84.4316 8.76318 84.8614 8.12827C85.2563 7.5408 85.34 6.68542 85.0065 6.04632ZM84.2725 7.87152C83.8818 8.36689 83.2832 8.68643 82.718 8.94458C82.1417 9.20971 81.5375 9.41623 80.9417 9.63392C80.8091 9.28506 80.5845 8.95575 80.3891 8.64876C80.0654 8.14083 79.7235 7.63011 79.5016 7.06637C79.316 6.59332 79.2505 6.0533 79.5309 5.60258C79.8156 5.1407 80.2803 4.90767 80.7994 5.13931C81.0687 5.25931 81.3017 5.47141 81.4817 5.69887C81.6701 5.93748 81.7552 6.21377 81.8976 6.47332C81.8752 6.50402 81.8515 6.53611 81.8278 6.5682C81.7859 6.62402 81.8599 6.68542 81.9129 6.64635C81.9534 6.61704 81.998 6.59053 82.0413 6.56262C82.051 6.55983 82.0608 6.55425 82.0678 6.54588C82.2436 6.43983 82.4445 6.35052 82.6232 6.2654C82.8604 6.15377 83.0948 6.04074 83.3502 5.97097C83.7479 5.86492 84.2683 5.80352 84.5 6.22354C84.7874 6.75798 84.627 7.42638 84.2725 7.87152Z" fill="white"/>
</g>
</g>
</g>
<mask id="mask3_658_1562" style="mask-type:luminance" maskUnits="userSpaceOnUse" x="82" y="0" width="2" height="2">
<path d="M82.5649 0.357224H83.6366V1.78612H82.5649V0.357224Z" fill="white"/>
</mask>
<g mask="url(#mask3_658_1562)">
<mask id="mask4_658_1562" style="mask-type:luminance" maskUnits="userSpaceOnUse" x="73" y="-2" width="18" height="19">
<path d="M77.7537 -1.50703L90.5747 3.21642L85.8513 16.0374L73.0303 11.314L77.7537 -1.50703Z" fill="white"/>
</mask>
<g mask="url(#mask4_658_1562)">
<mask id="mask5_658_1562" style="mask-type:luminance" maskUnits="userSpaceOnUse" x="73" y="-2" width="18" height="18">
<path d="M77.7718 -1.55867L90.5942 3.16478L85.8707 15.9858L73.0483 11.2623L77.7718 -1.55867Z" fill="white"/>
</mask>
<g mask="url(#mask5_658_1562)">
<path d="M82.9541 1.60053C82.9722 1.62983 83.0294 1.65077 83.0629 1.6396C83.2346 1.58658 83.2667 1.44564 83.3197 1.28238C83.3853 1.08981 83.4495 0.890269 83.4955 0.693516C83.5374 0.517695 83.3183 0.436761 83.236 0.597233C83.1425 0.77724 83.0629 0.971202 82.9876 1.15958C82.9248 1.32005 82.8578 1.44704 82.9541 1.60053Z" fill="white"/>
</g>
</g>
</g>
<mask id="mask6_658_1562" style="mask-type:luminance" maskUnits="userSpaceOnUse" x="80" y="0" width="2" height="2">
<path d="M80.4214 0H81.1358V1.4289H80.4214V0Z" fill="white"/>
</mask>
<g mask="url(#mask6_658_1562)">
<mask id="mask7_658_1562" style="mask-type:luminance" maskUnits="userSpaceOnUse" x="73" y="-2" width="18" height="19">
<path d="M77.7532 -1.50703L90.5742 3.21642L85.8508 16.0374L73.0298 11.314L77.7532 -1.50703Z" fill="white"/>
</mask>
<g mask="url(#mask7_658_1562)">
<mask id="mask8_658_1562" style="mask-type:luminance" maskUnits="userSpaceOnUse" x="73" y="-2" width="18" height="18">
<path d="M77.7713 -1.55865L90.5937 3.1648L85.8702 15.9858L73.0479 11.2623L77.7713 -1.55865Z" fill="white"/>
</mask>
<g mask="url(#mask8_658_1562)">
<path d="M80.9362 1.24751C80.9013 1.10518 80.8608 0.96703 80.8245 0.827489C80.7896 0.697716 80.7687 0.545617 80.7045 0.425612C80.6585 0.337701 80.498 0.319561 80.4701 0.43538C80.3947 0.72702 80.5552 1.07169 80.671 1.33123C80.7324 1.47356 80.9752 1.40519 80.9362 1.24751Z" fill="white"/>
</g>
</g>
</g>
<mask id="mask9_658_1562" style="mask-type:luminance" maskUnits="userSpaceOnUse" x="77" y="1" width="2" height="2">
<path d="M77.5635 1.42889H78.6351V2.50057H77.5635V1.42889Z" fill="white"/>
</mask>
<g mask="url(#mask9_658_1562)">
<mask id="mask10_658_1562" style="mask-type:luminance" maskUnits="userSpaceOnUse" x="73" y="-2" width="18" height="19">
<path d="M77.7532 -1.50705L90.5742 3.2164L85.8508 16.0374L73.0298 11.314L77.7532 -1.50705Z" fill="white"/>
</mask>
<g mask="url(#mask10_658_1562)">
<mask id="mask11_658_1562" style="mask-type:luminance" maskUnits="userSpaceOnUse" x="73" y="-2" width="18" height="18">
<path d="M77.7713 -1.55869L90.5937 3.16477L85.8702 15.9858L73.0479 11.2623L77.7713 -1.55869Z" fill="white"/>
</mask>
<g mask="url(#mask11_658_1562)">
<path d="M77.7851 1.67866C77.6888 1.62843 77.5869 1.75541 77.633 1.84332C77.7349 2.04426 77.8716 2.23264 78.0684 2.34985C78.194 2.4252 78.353 2.31078 78.2916 2.16705C78.1898 1.9396 78.0028 1.7889 77.7851 1.67866Z" fill="white"/>
</g>
</g>
</g>
<mask id="mask12_658_1562" style="mask-type:luminance" maskUnits="userSpaceOnUse" x="75" y="3" width="2" height="2">
<path d="M75.7773 3.21503H76.849V4.2867H75.7773V3.21503Z" fill="white"/>
</mask>
<g mask="url(#mask12_658_1562)">
<mask id="mask13_658_1562" style="mask-type:luminance" maskUnits="userSpaceOnUse" x="73" y="-2" width="18" height="19">
<path d="M77.7532 -1.50703L90.5742 3.21642L85.8508 16.0374L73.0298 11.314L77.7532 -1.50703Z" fill="white"/>
</mask>
<g mask="url(#mask13_658_1562)">
<mask id="mask14_658_1562" style="mask-type:luminance" maskUnits="userSpaceOnUse" x="73" y="-2" width="18" height="18">
<path d="M77.7713 -1.55865L90.5937 3.1648L85.8702 15.9858L73.0479 11.2623L77.7713 -1.55865Z" fill="white"/>
</mask>
<g mask="url(#mask14_658_1562)">
<path d="M76.6955 3.87925C76.521 3.70064 76.2699 3.57924 76.0187 3.55691C75.8094 3.53877 75.7843 3.8053 75.9461 3.89042C76.1248 3.9867 76.3034 4.08438 76.4862 4.17787C76.648 4.26438 76.8211 4.00763 76.6955 3.87925Z" fill="white"/>
</g>
</g>
</g>
<mask id="mask15_658_1562" style="mask-type:luminance" maskUnits="userSpaceOnUse" x="74" y="6" width="3" height="2">
<path d="M74.7061 6.43004H76.135V7.50171H74.7061V6.43004Z" fill="white"/>
</mask>
<g mask="url(#mask15_658_1562)">
<mask id="mask16_658_1562" style="mask-type:luminance" maskUnits="userSpaceOnUse" x="73" y="-2" width="18" height="19">
<path d="M77.7537 -1.50703L90.5747 3.21642L85.8513 16.0374L73.0303 11.314L77.7537 -1.50703Z" fill="white"/>
</mask>
<g mask="url(#mask16_658_1562)">
<mask id="mask17_658_1562" style="mask-type:luminance" maskUnits="userSpaceOnUse" x="73" y="-2" width="18" height="18">
<path d="M77.7718 -1.55865L90.5942 3.1648L85.8707 15.9858L73.0483 11.2623L77.7718 -1.55865Z" fill="white"/>
</mask>
<g mask="url(#mask17_658_1562)">
<path d="M75.9887 6.68402C75.8366 6.62541 75.6552 6.63239 75.4989 6.6603C75.3259 6.69239 75.1863 6.75239 75.0384 6.84868C74.8947 6.94496 74.9951 7.15985 75.1431 7.17939C75.4124 7.21148 75.7626 7.1445 76.0012 7.00636C76.1282 6.9324 76.1394 6.74542 75.9887 6.68402Z" fill="white"/>
</g>
</g>
</g>
<mask id="mask18_658_1562" style="mask-type:luminance" maskUnits="userSpaceOnUse" x="75" y="9" width="2" height="2">
<path d="M75.4204 9.28784H76.4921V10.0023H75.4204V9.28784Z" fill="white"/>
</mask>
<g mask="url(#mask18_658_1562)">
<mask id="mask19_658_1562" style="mask-type:luminance" maskUnits="userSpaceOnUse" x="73" y="-2" width="18" height="19">
<path d="M77.7537 -1.50702L90.5747 3.21643L85.8513 16.0374L73.0303 11.314L77.7537 -1.50702Z" fill="white"/>
</mask>
<g mask="url(#mask19_658_1562)">
<mask id="mask20_658_1562" style="mask-type:luminance" maskUnits="userSpaceOnUse" x="73" y="-2" width="18" height="18">
<path d="M77.7718 -1.55864L90.5942 3.16481L85.8707 15.9858L73.0483 11.2624L77.7718 -1.55864Z" fill="white"/>
</mask>
<g mask="url(#mask20_658_1562)">
<path d="M76.3036 9.38554C76.1892 9.37019 76.0817 9.38275 75.9771 9.4288C75.8752 9.47484 75.7747 9.55717 75.7133 9.64927C75.6184 9.79858 75.7663 9.99115 75.9366 9.91998C76.0817 9.85579 76.2199 9.77346 76.365 9.71346C76.5282 9.64508 76.4654 9.40926 76.3036 9.38554Z" fill="white"/>
</g>
</g>
</g>
<mask id="mask21_658_1562" style="mask-type:luminance" maskUnits="userSpaceOnUse" x="76" y="11" width="2" height="2">
<path d="M76.8491 11.4312H77.5636V12.5029H76.8491V11.4312Z" fill="white"/>
</mask>
<g mask="url(#mask21_658_1562)">
<mask id="mask22_658_1562" style="mask-type:luminance" maskUnits="userSpaceOnUse" x="73" y="-2" width="18" height="19">
<path d="M77.7532 -1.50703L90.5742 3.21642L85.8508 16.0374L73.0298 11.314L77.7532 -1.50703Z" fill="white"/>
</mask>
<g mask="url(#mask22_658_1562)">
<mask id="mask23_658_1562" style="mask-type:luminance" maskUnits="userSpaceOnUse" x="73" y="-2" width="18" height="18">
<path d="M77.7713 -1.55865L90.5937 3.1648L85.8702 15.9858L73.0479 11.2623L77.7713 -1.55865Z" fill="white"/>
</mask>
<g mask="url(#mask23_658_1562)">
<path d="M77.4406 11.5414C77.1754 11.5986 77.0066 11.921 76.9284 12.1568C76.8894 12.2796 77.0484 12.3647 77.128 12.2615C77.2047 12.1638 77.2843 12.0675 77.3624 11.967C77.4336 11.8763 77.5173 11.7842 77.5452 11.6684C77.5606 11.6028 77.5159 11.5247 77.4406 11.5414Z" fill="white"/>
</g>
</g>
</g>
<mask id="mask24_658_1562" style="mask-type:luminance" maskUnits="userSpaceOnUse" x="78" y="12" width="2" height="2">
<path d="M78.9927 12.5029H79.7071V13.9318H78.9927V12.5029Z" fill="white"/>
</mask>
<g mask="url(#mask24_658_1562)">
<mask id="mask25_658_1562" style="mask-type:luminance" maskUnits="userSpaceOnUse" x="73" y="-2" width="18" height="19">
<path d="M77.7537 -1.50703L90.5747 3.21642L85.8513 16.0374L73.0303 11.314L77.7537 -1.50703Z" fill="white"/>
</mask>
<g mask="url(#mask25_658_1562)">
<mask id="mask26_658_1562" style="mask-type:luminance" maskUnits="userSpaceOnUse" x="73" y="-2" width="18" height="18">
<path d="M77.7718 -1.55865L90.5942 3.1648L85.8707 15.9858L73.0483 11.2623L77.7718 -1.55865Z" fill="white"/>
</mask>
<g mask="url(#mask26_658_1562)">
<path d="M79.4072 12.8908C79.4086 12.7917 79.2941 12.7205 79.2132 12.7903C79.015 12.9536 78.9732 13.2564 79.0123 13.4964C79.0374 13.6555 79.2453 13.6192 79.2746 13.4838C79.3165 13.2913 79.403 13.0875 79.4072 12.8908Z" fill="white"/>
</g>
</g>
</g>
<mask id="mask27_658_1562" style="mask-type:luminance" maskUnits="userSpaceOnUse" x="83" y="12" width="2" height="2">
<path d="M83.6367 12.8601H84.7084V13.9317H83.6367V12.8601Z" fill="white"/>
</mask>
<g mask="url(#mask27_658_1562)">
<mask id="mask28_658_1562" style="mask-type:luminance" maskUnits="userSpaceOnUse" x="73" y="-2" width="18" height="19">
<path d="M77.7537 -1.50705L90.5747 3.2164L85.8513 16.0374L73.0303 11.314L77.7537 -1.50705Z" fill="white"/>
</mask>
<g mask="url(#mask28_658_1562)">
<mask id="mask29_658_1562" style="mask-type:luminance" maskUnits="userSpaceOnUse" x="73" y="-2" width="18" height="18">
<path d="M77.7718 -1.55867L90.5942 3.16478L85.8707 15.9858L73.0483 11.2623L77.7718 -1.55867Z" fill="white"/>
</mask>
<g mask="url(#mask29_658_1562)">
<path d="M83.948 13.0471C83.8461 12.948 83.6661 13.0387 83.7303 13.1838C83.8433 13.4392 84.0401 13.6708 84.234 13.8704C84.308 13.9485 84.4336 13.8941 84.421 13.7838C84.3889 13.4908 84.1559 13.2466 83.948 13.0471Z" fill="white"/>
</g>
</g>
</g>
<mask id="mask30_658_1562" style="mask-type:luminance" maskUnits="userSpaceOnUse" x="85" y="11" width="2" height="2">
<path d="M85.0654 11.7884H86.4943V12.8601H85.0654V11.7884Z" fill="white"/>
</mask>
<g mask="url(#mask30_658_1562)">
<mask id="mask31_658_1562" style="mask-type:luminance" maskUnits="userSpaceOnUse" x="73" y="-2" width="18" height="19">
<path d="M77.7537 -1.50702L90.5747 3.21643L85.8513 16.0374L73.0303 11.314L77.7537 -1.50702Z" fill="white"/>
</mask>
<g mask="url(#mask31_658_1562)">
<mask id="mask32_658_1562" style="mask-type:luminance" maskUnits="userSpaceOnUse" x="73" y="-2" width="18" height="18">
<path d="M77.7718 -1.55864L90.5942 3.16481L85.8707 15.9858L73.0483 11.2624L77.7718 -1.55864Z" fill="white"/>
</mask>
<g mask="url(#mask32_658_1562)">
<path d="M85.9782 12.0968C85.8135 11.988 85.6238 11.8624 85.4242 11.8387C85.2931 11.8233 85.2177 11.9894 85.2958 12.0857C85.4103 12.2294 85.5889 12.3257 85.7326 12.4373C85.8847 12.5517 86.0382 12.6522 86.214 12.7234C86.3243 12.7666 86.454 12.6382 86.394 12.5308C86.2936 12.3494 86.154 12.2085 85.9782 12.0968Z" fill="white"/>
</g>
</g>
</g>
<mask id="mask33_658_1562" style="mask-type:luminance" maskUnits="userSpaceOnUse" x="86" y="10" width="2" height="2">
<path d="M86.4941 10.0023H87.5658V11.0739H86.4941V10.0023Z" fill="white"/>
</mask>
<g mask="url(#mask33_658_1562)">
<mask id="mask34_658_1562" style="mask-type:luminance" maskUnits="userSpaceOnUse" x="73" y="-2" width="18" height="19">
<path d="M77.7532 -1.50705L90.5742 3.2164L85.8508 16.0374L73.0298 11.314L77.7532 -1.50705Z" fill="white"/>
</mask>
<g mask="url(#mask34_658_1562)">
<mask id="mask35_658_1562" style="mask-type:luminance" maskUnits="userSpaceOnUse" x="73" y="-2" width="18" height="18">
<path d="M77.7713 -1.55869L90.5937 3.16477L85.8702 15.9858L73.0479 11.2623L77.7713 -1.55869Z" fill="white"/>
</mask>
<g mask="url(#mask35_658_1562)">
<path d="M87.4833 10.6763C87.32 10.4753 87.0647 10.2758 86.7898 10.2897C86.6949 10.2953 86.5888 10.4139 86.6796 10.5004C86.8484 10.6651 87.0745 10.7753 87.274 10.9037C87.4177 10.9986 87.5991 10.8186 87.4833 10.6763Z" fill="white"/>
</g>
</g>
</g>
<mask id="mask36_658_1562" style="mask-type:luminance" maskUnits="userSpaceOnUse" x="87" y="8" width="2" height="1">
<path d="M87.5659 8.21617H88.6376V8.93062H87.5659V8.21617Z" fill="white"/>
</mask>
<g mask="url(#mask36_658_1562)">
<mask id="mask37_658_1562" style="mask-type:luminance" maskUnits="userSpaceOnUse" x="73" y="-2" width="18" height="19">
<path d="M77.7532 -1.50703L90.5742 3.21642L85.8508 16.0374L73.0298 11.314L77.7532 -1.50703Z" fill="white"/>
</mask>
<g mask="url(#mask37_658_1562)">
<mask id="mask38_658_1562" style="mask-type:luminance" maskUnits="userSpaceOnUse" x="73" y="-2" width="18" height="18">
<path d="M77.7713 -1.55865L90.5937 3.1648L85.8702 15.9858L73.0479 11.2623L77.7713 -1.55865Z" fill="white"/>
</mask>
<g mask="url(#mask38_658_1562)">
<path d="M88.5383 8.36269C88.2732 8.23292 87.9229 8.20919 87.6494 8.34036C87.4917 8.41711 87.5783 8.62223 87.7359 8.61526C87.9955 8.6027 88.2592 8.62921 88.5174 8.59572C88.6457 8.57339 88.636 8.41013 88.5383 8.36269Z" fill="white"/>
</g>
</g>
</g>
<mask id="mask39_658_1562" style="mask-type:luminance" maskUnits="userSpaceOnUse" x="87" y="5" width="2" height="2">
<path d="M87.5659 5.71559H88.6376V6.43004H87.5659V5.71559Z" fill="white"/>
</mask>
<g mask="url(#mask39_658_1562)">
<mask id="mask40_658_1562" style="mask-type:luminance" maskUnits="userSpaceOnUse" x="73" y="-2" width="18" height="19">
<path d="M77.7532 -1.50703L90.5742 3.21642L85.8508 16.0374L73.0298 11.314L77.7532 -1.50703Z" fill="white"/>
</mask>
<g mask="url(#mask40_658_1562)">
<mask id="mask41_658_1562" style="mask-type:luminance" maskUnits="userSpaceOnUse" x="73" y="-2" width="18" height="18">
<path d="M77.7713 -1.55867L90.5937 3.16478L85.8702 15.9858L73.0479 11.2623L77.7713 -1.55867Z" fill="white"/>
</mask>
<g mask="url(#mask41_658_1562)">
<path d="M87.7179 6.27655C87.9719 6.20678 88.2384 6.16073 88.4854 6.06445C88.5887 6.02259 88.5831 5.85374 88.4756 5.82025C88.1645 5.72537 87.8631 5.89002 87.6342 6.09654C87.563 6.16073 87.6091 6.30725 87.7179 6.27655Z" fill="white"/>
</g>
</g>
</g>
<mask id="mask42_658_1562" style="mask-type:luminance" maskUnits="userSpaceOnUse" x="86" y="2" width="2" height="2">
<path d="M86.4941 2.8578H87.923V3.92948H86.4941V2.8578Z" fill="white"/>
</mask>
<g mask="url(#mask42_658_1562)">
<mask id="mask43_658_1562" style="mask-type:luminance" maskUnits="userSpaceOnUse" x="73" y="-2" width="18" height="19">
<path d="M77.7532 -1.50703L90.5742 3.21642L85.8508 16.0374L73.0298 11.314L77.7532 -1.50703Z" fill="white"/>
</mask>
<g mask="url(#mask43_658_1562)">
<mask id="mask44_658_1562" style="mask-type:luminance" maskUnits="userSpaceOnUse" x="73" y="-2" width="18" height="18">
<path d="M77.7713 -1.55865L90.5937 3.1648L85.8702 15.9858L73.0479 11.2623L77.7713 -1.55865Z" fill="white"/>
</mask>
<g mask="url(#mask44_658_1562)">
<path d="M87.3005 3.65039C87.4526 3.5862 87.6075 3.53457 87.7289 3.41736C87.8782 3.27642 87.7303 3.06293 87.5461 3.12432C87.2266 3.23037 86.8205 3.39085 86.6782 3.72295C86.6223 3.84994 86.78 3.92529 86.8749 3.86389C87.0117 3.77877 87.1512 3.71319 87.3005 3.65039Z" fill="white"/>
</g>
</g>
</g>
<mask id="mask45_658_1562" style="mask-type:luminance" maskUnits="userSpaceOnUse" x="84" y="1" width="2" height="2">
<path d="M84.708 1.07169H85.7797V2.50058H84.708V1.07169Z" fill="white"/>
</mask>
<g mask="url(#mask45_658_1562)">
<mask id="mask46_658_1562" style="mask-type:luminance" maskUnits="userSpaceOnUse" x="73" y="-2" width="18" height="19">
<path d="M77.7532 -1.50702L90.5742 3.21643L85.8508 16.0374L73.0298 11.314L77.7532 -1.50702Z" fill="white"/>
</mask>
<g mask="url(#mask46_658_1562)">
<mask id="mask47_658_1562" style="mask-type:luminance" maskUnits="userSpaceOnUse" x="73" y="-2" width="18" height="18">
<path d="M77.7713 -1.55864L90.5937 3.16481L85.8702 15.9858L73.0479 11.2624L77.7713 -1.55864Z" fill="white"/>
</mask>
<g mask="url(#mask47_658_1562)">
<path d="M85.1894 2.28572C85.3736 2.02198 85.5926 1.81826 85.6889 1.5015C85.7322 1.35917 85.5619 1.28102 85.4685 1.38568C85.2452 1.62569 85.0554 1.84337 84.9535 2.16013C84.9103 2.30107 85.1015 2.4113 85.1894 2.28572Z" fill="white"/>
</g>
</g>
</g>
<mask id="mask48_658_1562" style="mask-type:luminance" maskUnits="userSpaceOnUse" x="81" y="13" width="1" height="2">
<path d="M81.1357 13.2173H81.8502V14.289H81.1357V13.2173Z" fill="white"/>
</mask>
<g mask="url(#mask48_658_1562)">
<mask id="mask49_658_1562" style="mask-type:luminance" maskUnits="userSpaceOnUse" x="73" y="-2" width="18" height="19">
<path d="M77.7532 -1.50703L90.5742 3.21642L85.8508 16.0374L73.0298 11.314L77.7532 -1.50703Z" fill="white"/>
</mask>
<g mask="url(#mask49_658_1562)">
<mask id="mask50_658_1562" style="mask-type:luminance" maskUnits="userSpaceOnUse" x="73" y="-2" width="18" height="18">
<path d="M77.7713 -1.55867L90.5937 3.16478L85.8702 15.9858L73.0479 11.2623L77.7713 -1.55867Z" fill="white"/>
</mask>
<g mask="url(#mask50_658_1562)">
<path d="M81.7537 13.5759C81.7858 13.4796 81.7481 13.375 81.6574 13.3261C81.5765 13.2857 81.4467 13.2954 81.3978 13.3862C81.3434 13.4866 81.2876 13.5899 81.2583 13.7015C81.2276 13.8257 81.2318 13.9415 81.2416 14.0657C81.2499 14.1648 81.3588 14.2346 81.4481 14.229C81.5569 14.222 81.6211 14.1494 81.6392 14.0476C81.6699 13.8913 81.7034 13.728 81.7537 13.5759Z" fill="white"/>
</g>
</g>
</g>
</svg>