<svg width="30" height="30" viewBox="0 0 30 30" fill="none" xmlns="http://www.w3.org/2000/svg">
<g clip-path="url(#clip0_536_1028)">
<path d="M10.8333 4.16667H3.33333C2.44928 4.16667 1.60143 4.51786 0.976311 5.14298C0.35119 5.7681 0 6.61595 0 7.5L0 15H10.8333V4.16667ZM6.9475 11.91L5.37917 10.7708L3.81083 11.91L4.41 10.0667L2.84167 8.92667H4.78L5.37917 7.08333L5.97833 8.92667H7.91667L6.34833 10.0667L6.9475 11.91Z" fill="#1F429B"/>
<path d="M26.6663 4.16667H10.833V15H29.9997V7.5C29.9997 6.61595 29.6485 5.7681 29.0234 5.14298C28.3982 4.51786 27.5504 4.16667 26.6663 4.16667Z" fill="#EEEEEE"/>
<path d="M0 15V22.5C0 23.3841 0.35119 24.2319 0.976311 24.857C1.60143 25.4821 2.44928 25.8333 3.33333 25.8333H26.6667C27.5507 25.8333 28.3986 25.4821 29.0237 24.857C29.6488 24.2319 30 23.3841 30 22.5V15H0Z" fill="#D42D27"/>
<path d="M5.97846 8.92667L5.3793 7.08333L4.78013 8.92667H2.8418L4.41013 10.0667L3.81096 11.91L5.3793 10.7708L6.94763 11.91L6.34846 10.0667L7.9168 8.92667H5.97846Z" fill="white"/>
</g>
<defs>
<clipPath id="clip0_536_1028">
<rect width="30" height="30" fill="white"/>
</clipPath>
</defs>
</svg>
