<svg width="35" height="35" viewBox="0 0 35 35" fill="none" xmlns="http://www.w3.org/2000/svg">
<path d="M31.5273 30.4773H3.47266C1.96328 30.4773 0.738281 29.2523 0.738281 27.743V8.05547C0.738281 6.54609 1.96328 5.32109 3.47266 5.32109H31.5273C33.0367 5.32109 34.2617 6.54609 34.2617 8.05547V27.743C34.2617 29.2551 33.0367 30.4773 31.5273 30.4773Z" fill="#016CA2"/>
<path d="M17.4891 16.3543L17.4809 16.357C17.4152 16.3816 17.3961 16.4637 17.4398 16.5184L17.7133 16.8492L17.8992 16.6906L17.6012 16.3789C17.5868 16.3645 17.5686 16.3544 17.5487 16.3501C17.5289 16.3457 17.5081 16.3472 17.4891 16.3543ZM13.0512 21.5906L12.332 21.216C12.2691 21.1832 12.1953 21.1641 12.1242 21.1641H11.9164C11.8976 21.1636 11.8796 21.1565 11.8656 21.1439C11.8516 21.1314 11.8424 21.1143 11.8398 21.0957C11.818 20.866 11.6238 20.6883 11.3941 20.6883H11.3285C11.1891 20.6883 11.0578 20.6227 10.973 20.5105L10.8746 20.3793C10.798 20.2781 10.6832 20.2152 10.5574 20.2043L10.0215 20.1578C10.0084 20.1574 9.99589 20.1526 9.98594 20.1441L9.89844 20.084C9.87383 20.0676 9.84375 20.0648 9.81914 20.0813L9.43633 20.2973C9.36797 20.3355 9.29414 20.3547 9.21484 20.3547H8.82109C8.80742 20.3547 8.79648 20.352 8.78555 20.3465C8.7418 20.3219 8.64062 20.2453 8.64062 20.0758V19.8488C8.64062 19.8388 8.63864 19.8288 8.6348 19.8195C8.63095 19.8102 8.62531 19.8018 8.6182 19.7947C8.61109 19.7876 8.60265 19.7819 8.59336 19.7781C8.58407 19.7742 8.57412 19.7723 8.56406 19.7723H8.31523C8.30185 19.7721 8.28874 19.7685 8.27719 19.7618C8.26565 19.755 8.25608 19.7453 8.24944 19.7337C8.2428 19.7221 8.23932 19.7089 8.23935 19.6955C8.23938 19.6822 8.24292 19.669 8.24961 19.6574L8.36719 19.4523C8.37266 19.4414 8.37812 19.4277 8.37812 19.4141V19.2336C8.37812 19.2133 8.37006 19.1938 8.3557 19.1795C8.34134 19.1651 8.32187 19.157 8.30156 19.157H8.16484C8.14023 19.157 8.11562 19.1707 8.10195 19.1926L8.02539 19.3129C7.94336 19.4414 7.80117 19.518 7.64805 19.518H7.53867C7.53867 19.518 7.36094 19.4852 7.36094 19.2965V18.6102C7.36367 18.5883 7.38008 18.5199 7.45391 18.4734C7.51953 18.4324 7.67266 18.3504 7.74922 18.3094C7.77656 18.2957 7.81211 18.2984 7.83672 18.3203L7.98164 18.4543C7.99531 18.468 8.01172 18.4734 8.03086 18.4734C8.07734 18.4734 8.16211 18.4762 8.17852 18.468C8.20039 18.457 8.1457 18.3586 8.27695 18.3176C8.41094 18.2793 8.49844 18.3996 8.49844 18.3996L8.8375 18.8016C8.86211 18.8316 8.90586 18.8371 8.93867 18.8152L8.98789 18.7824C9.0207 18.7605 9.03164 18.7168 9.0125 18.6813L9.00703 18.6703C8.89766 18.4816 8.93867 18.241 9.10547 18.1016L9.38711 17.8637C9.38711 17.8637 9.41992 17.8418 9.43633 17.7188C9.44727 17.6449 9.46641 17.5355 9.48008 17.459C9.51016 17.4098 9.53477 17.3633 9.56484 17.3141L10.1719 16.8027C10.2074 16.7727 10.2594 16.7809 10.284 16.8191C10.3141 16.8629 10.3633 16.9121 10.4262 16.9094C10.5219 16.9039 10.7598 16.7754 10.8527 16.7207C10.8645 16.7143 10.8742 16.7048 10.881 16.6932C10.8877 16.6816 10.8912 16.6685 10.891 16.6551V16.5594L10.5984 16.6195C10.5574 16.6277 10.5164 16.6004 10.5082 16.5566L10.4754 16.3652C10.4723 16.3478 10.4633 16.332 10.4498 16.3205C10.4363 16.309 10.4193 16.3026 10.4016 16.3023L10.109 16.3352L10.1445 16.2477C10.1555 16.2176 10.1828 16.1984 10.2156 16.193L10.9375 16.1164C11.0031 16.0891 11.1016 16.0508 11.1672 16.0234L11.3121 15.9113C11.3477 15.884 11.3504 15.832 11.3203 15.7992L10.5082 14.968C10.4969 14.9568 10.4826 14.9493 10.467 14.9463C10.4514 14.9434 10.4353 14.9452 10.4207 14.9516L10.1773 15.0664C10.1527 15.0773 10.1227 15.0746 10.1008 15.0609L9.42812 14.5879C9.42023 14.5821 9.41127 14.578 9.40177 14.5757C9.39228 14.5734 9.38242 14.573 9.37277 14.5746C9.36312 14.5761 9.35387 14.5795 9.34554 14.5846C9.33721 14.5897 9.32996 14.5964 9.32422 14.6043L9.22031 14.7465C9.21211 14.7574 9.20664 14.7711 9.20664 14.7875L9.1875 15.1402C9.1875 15.1621 9.19297 15.1813 9.20938 15.1977L9.30781 15.2988C9.34062 15.3316 9.33516 15.3863 9.29688 15.4137L9.15195 15.5176C9.14222 15.5246 9.13096 15.5293 9.11908 15.5312C9.1072 15.5331 9.09505 15.5322 9.08359 15.5285L8.75547 15.5832C8.70898 15.4602 8.60781 15.3645 8.48203 15.3207L8.31797 15.2633C8.01992 15.1621 7.91875 14.793 8.11836 14.5523L8.43828 14.1668C8.44651 14.1561 8.45204 14.1435 8.45442 14.1302C8.45679 14.1169 8.45595 14.1032 8.45195 14.0902L8.36172 13.8578L8.34531 13.8332L7.98438 13.4477C7.84219 13.2973 7.58789 13.3738 7.55508 13.5789L7.55234 13.6008C7.5332 13.7211 7.42656 13.8113 7.30625 13.8113H6.23164C6.17148 13.7977 6.11133 13.7867 6.04844 13.773L5.31289 13.4449C5.26094 13.4313 5.21172 13.4203 5.15977 13.4066L4.48438 13.3629C4.42148 13.3738 4.35859 13.382 4.2957 13.393L3.99219 13.5105C3.91016 13.5406 3.82266 13.5488 3.73789 13.5297L2.23672 13.2098C2.14648 13.1906 2.05078 13.1988 1.96602 13.2371L1.25781 13.5406C1.20586 13.5625 1.19492 13.6309 1.23867 13.6691L1.42461 13.825C1.47656 13.8688 1.44648 13.9563 1.37812 13.959L1.09922 13.9645C1.0582 13.9645 1.02539 14 1.02539 14.041V14.0793C1.02539 14.1203 1.0582 14.1531 1.09922 14.1559L1.33984 14.1586C1.42188 14.1613 1.44375 14.2707 1.36992 14.3035L1.16211 14.3965C1.13203 14.4102 1.11563 14.4402 1.11836 14.473L1.1375 14.6809C1.15664 14.8859 1.30977 15.05 1.51484 15.0828L1.6625 15.1074C1.73359 15.1184 1.75 15.2113 1.68984 15.2469L1.64336 15.2742C1.59414 15.3043 1.59414 15.3754 1.64336 15.4027L1.66797 15.4164C1.68984 15.4301 1.71445 15.4301 1.73906 15.4219L3.00508 14.8504C3.16914 14.7766 3.36055 14.8066 3.4918 14.9297L4.69766 16.0316C4.78516 16.1109 4.83711 16.223 4.84258 16.3406L4.88359 17.1828C4.88906 17.2785 4.92187 17.3688 4.98203 17.4426L6.16875 18.9191C6.19062 18.9465 6.22891 18.9547 6.26172 18.9383C6.30273 18.9164 6.31641 18.8645 6.28906 18.8262C6.28906 18.8262 7.03828 19.6027 7.10938 19.6355L7.71641 19.9363C7.7793 19.9664 7.84492 19.9828 7.91602 19.9828H8.2168C8.24687 19.9828 8.27422 19.9992 8.28516 20.0266L8.38633 20.2453C8.38633 20.248 8.38906 20.248 8.38906 20.2508C8.4082 20.2809 8.56406 20.5461 8.73086 20.557C8.90859 20.568 9.22852 20.557 9.22852 20.557C9.22852 20.557 9.34336 20.5543 9.34336 20.6801V20.8715C9.34336 20.8988 9.32969 20.9234 9.30508 20.9371C9.20664 20.9918 8.95234 21.1531 8.95234 21.3363V21.7656C8.95234 21.7848 8.95781 21.8012 8.96875 21.8148C9.00156 21.8531 9.07266 21.9352 9.13281 21.9844C9.19844 22.0363 9.31328 22.1703 9.35977 22.2223C9.3707 22.2359 9.37617 22.2523 9.37617 22.2715V22.5176C9.37891 22.5258 9.37891 22.5367 9.38164 22.5449C9.39531 22.5777 9.43086 22.6598 9.49375 22.6898C9.53203 22.709 9.62773 22.7855 9.71523 22.8621C9.82461 22.9551 9.88203 23.0945 9.87109 23.2395L9.81641 23.9395C9.81094 23.9668 9.8082 23.9941 9.80273 24.0215L9.55937 24.9348C9.55391 24.9895 9.55117 25.0414 9.5457 25.0961L9.57031 25.4707C9.57578 25.5363 9.57031 25.602 9.54844 25.6648L9.4582 25.9191C9.43086 26.0012 9.42539 26.0887 9.44453 26.1734L9.55937 26.6465C9.57305 26.7012 9.60313 26.7504 9.64961 26.7859L9.76719 26.8789C9.81094 26.9145 9.87656 26.9637 9.92305 26.9309C10.15 26.775 10.232 26.1461 10.3305 25.9109C10.3797 25.7906 11.107 24.8418 11.1043 24.7133L11.0988 24.5301C11.0988 24.4863 11.1316 24.4535 11.1754 24.4535H11.4078C11.4297 24.4535 11.4488 24.4453 11.4625 24.4289L12.0066 23.8328C12.0203 23.8191 12.0258 23.8 12.0258 23.7809V23.5375C12.0258 23.4938 12.0613 23.4609 12.1051 23.4609C12.198 23.4664 12.3512 23.4664 12.4031 23.4227C12.4688 23.368 12.6656 23.1383 12.7285 23.0672C12.7395 23.0535 12.7477 23.0371 12.7477 23.018V22.6324C12.7477 22.5203 12.7887 22.4137 12.8652 22.3289L13.1387 22.0281C13.2152 21.9461 13.2344 21.823 13.1797 21.7137C13.1523 21.6617 13.1059 21.618 13.0512 21.5906Z" fill="#BDCF46"/>
<path d="M31.9242 12.9473H31.1586C31.1203 12.9473 31.0875 12.9227 31.0766 12.8871L30.3438 12.7477C30.2809 12.7477 30.218 12.7285 30.1633 12.693L29.9965 12.5809C29.9418 12.5453 29.8789 12.5262 29.816 12.5262C29.816 12.5262 28.1098 11.6539 25.8758 11.7387C25.0363 11.7715 24.298 12.1898 24.298 12.1898C24.2762 12.198 24.2598 12.2199 24.257 12.2418L24.2488 12.3102C24.2434 12.343 24.216 12.3676 24.1805 12.3676L23.8441 12.3594C23.8059 12.3594 23.7758 12.3895 23.7758 12.425L22.8352 12.4578C22.7531 12.4578 22.6766 12.4988 22.6301 12.5645L22.5453 12.6875C22.4824 12.7777 21.6402 12.8078 21.6402 12.8078C21.6184 12.7983 21.5998 12.7826 21.5867 12.7627C21.5736 12.7428 21.5665 12.7195 21.5664 12.6957V12.5973C21.5664 12.5617 21.5801 12.5316 21.6074 12.507L22.0559 12.1023C22.1051 12.0586 22.168 12.0285 22.2336 12.0203L22.5125 11.9848C22.5288 11.9825 22.5444 11.9769 22.5585 11.9685C22.5726 11.96 22.5848 11.9488 22.5945 11.9355L22.6273 11.8863C22.6738 11.8207 22.6437 11.7305 22.5699 11.7031L22.5508 11.6949C22.5347 11.6894 22.5176 11.6874 22.5007 11.6888C22.4838 11.6902 22.4673 11.6951 22.4523 11.7031L22.2391 11.8262C22.2199 11.8371 22.2008 11.8426 22.1789 11.8426H21.9711C21.8836 11.8426 21.8016 11.8781 21.7387 11.941L21.2383 12.4523C21.1945 12.4961 21.1645 12.5535 21.1508 12.6137L21.1043 12.8379L21.1371 12.9336L20.9402 13.207L20.7625 13.3848H20.5957V13.207H20.3961L20.3387 13.4313C20.3113 13.5352 20.2375 13.6172 20.1391 13.6555L19.9723 13.7184C19.8656 13.7594 19.7426 13.7402 19.6523 13.6664L19.4363 13.4914L20.0187 13.5215L20.0844 13.3957C20.0844 13.3957 19.4746 13.1141 19.1219 12.9145C18.8348 12.7531 18.4574 12.8898 18.3262 12.9473C18.2934 12.9609 18.266 12.9801 18.2414 13.002L16.9699 14.1477C16.8332 14.2707 16.825 14.4867 16.9562 14.618L17.0766 14.741L17.2461 14.6016C17.2926 14.5633 17.3582 14.566 17.402 14.607L17.7191 14.9023H17.8012L18.102 14.5469C18.1375 14.5031 18.1402 14.443 18.1047 14.3992L18.0664 14.3473C18.0518 14.3283 18.0433 14.3054 18.0418 14.2815C18.0404 14.2577 18.0461 14.2339 18.0582 14.2133L18.4766 13.5352C18.4984 13.4996 18.5449 13.4859 18.5832 13.5023L18.657 13.5379C18.7008 13.557 18.7172 13.609 18.6953 13.6527L18.4082 14.1969C18.3727 14.2625 18.3672 14.3391 18.3891 14.4074L18.4355 14.5523C18.4574 14.6563 18.4383 14.7656 18.3754 14.8477L18.1949 15.091C18.132 15.1758 18.0281 15.225 17.9215 15.2223L17.3992 15.2031C17.3752 15.2018 17.3526 15.1915 17.3359 15.1743C17.3192 15.1571 17.3096 15.1342 17.309 15.1102V15.0254C17.309 14.9734 17.268 14.9324 17.216 14.9324C17.1695 14.9324 17.1285 14.968 17.123 15.0172L17.1094 15.1676C17.1039 15.2141 17.0656 15.2523 17.0164 15.2523H16.9672C16.9426 15.2523 16.9207 15.2605 16.9043 15.277L16.0566 16.059L16.1797 16.2367V16.4254C16.1797 16.4883 16.1277 16.5402 16.0648 16.5402H15.7941C15.6492 16.5402 15.5344 16.6633 15.5426 16.8082L15.5453 16.8438C15.5535 16.9723 15.6574 17.0734 15.7887 17.0789L16.0785 17.0871C16.1879 17.0898 16.2891 17.0406 16.3547 16.9504L16.5625 16.6578C16.6227 16.573 16.7211 16.5211 16.8277 16.5211H17.0273C17.093 16.5211 17.1586 16.5402 17.2133 16.5785L17.5332 16.8027C17.5961 16.8465 17.6016 16.9395 17.5414 16.9887L17.3609 17.1445C17.3008 17.1965 17.227 17.2238 17.1477 17.2238H16.0211C15.9199 17.2238 15.8215 17.273 15.7613 17.3551L14.8918 18.5172C14.8508 18.5746 14.8262 18.643 14.8262 18.7113V19.4824C14.8262 19.5535 14.848 19.6219 14.8918 19.6793L15.1953 20.0813C15.2199 20.1141 15.2363 20.1551 15.25 20.1934C15.2691 20.259 15.3238 20.3547 15.4551 20.3547H16.8605C16.8605 20.3547 17.2133 20.3656 17.2133 20.598C17.2133 20.6801 17.2105 20.7621 17.2078 20.8332C17.2023 20.959 17.268 21.0711 17.3773 21.134C17.4758 21.1914 17.5797 21.2898 17.5797 21.4484V21.875C17.5797 21.9078 17.5742 21.9406 17.566 21.9734C17.5414 22.0527 17.484 22.2141 17.4047 22.3344C17.3309 22.4438 17.4348 22.6078 17.5113 22.7035C17.5578 22.7637 17.5824 22.8375 17.5824 22.9113V23.3352C17.5824 23.3352 17.6152 23.491 17.7629 23.5566C17.9105 23.6223 17.9625 23.6605 17.9625 23.6605V23.8301C17.9625 24.0105 18.1074 24.1555 18.2879 24.1555H18.7145C18.7145 24.1555 18.9059 24.1691 19.0316 23.9777C19.1574 23.7863 19.6059 23.0918 19.6059 23.0918C19.6059 23.0918 19.6879 23.0043 19.6059 22.8484C19.5238 22.6926 19.5621 22.5531 19.5621 22.5531L19.9531 22.3289C19.9531 22.3289 20.1363 22.2988 20.1363 22.0445V21.7684C20.1363 21.7246 20.1254 21.6809 20.1008 21.6426L20.0324 21.5277C19.9586 21.402 19.9777 21.2461 20.0762 21.1395L20.8855 20.2809C20.8855 20.2809 21.0988 19.9637 21.0988 19.8023H20.4781C20.3633 19.8023 20.2594 19.7422 20.1992 19.6465L19.491 18.4789C19.4785 18.4585 19.4704 18.4357 19.467 18.412C19.4637 18.3882 19.4653 18.3641 19.4717 18.341C19.4782 18.3179 19.4892 18.2964 19.5043 18.2778C19.5194 18.2592 19.5381 18.2439 19.5594 18.2328C19.6414 18.1891 19.7426 18.2191 19.7891 18.2957L20.4754 19.4141L20.4727 19.5152C20.4727 19.548 20.4973 19.5727 20.5301 19.5727C20.6996 19.5727 21.2 19.5535 21.4789 19.3102C21.6266 19.1816 21.7168 19.0504 21.7715 18.941C21.8371 18.8098 21.8043 18.6512 21.6949 18.5555L21.5199 18.4023L21.293 18.4516L20.891 18.0496C20.8309 17.9895 20.8473 17.8855 20.9238 17.8473C20.9452 17.8366 20.9691 17.8322 20.9928 17.8347C21.0165 17.8371 21.0391 17.8462 21.0578 17.8609L21.6867 18.3422C21.6867 18.3422 21.8152 18.457 21.9465 18.457H22.3156C22.4305 18.457 22.5371 18.5172 22.5945 18.6156L23.4176 19.9992C23.4176 19.9992 23.5406 20.1141 23.6117 20.1086C23.6828 20.1031 23.7785 19.8051 23.7785 19.8051C23.7785 19.5289 23.9125 19.2664 24.1395 19.1078L24.4238 18.9082C24.5523 18.818 24.7246 18.8316 24.8367 18.9383L25.0117 19.1078V19.2883C25.0117 19.3184 25.0363 19.3457 25.0691 19.3457H25.1457L25.2195 19.2719H25.307V19.9992C25.307 20.0813 25.3371 20.1605 25.3945 20.2207L25.9414 20.8059V20.5953C25.9414 20.5215 25.9168 20.4504 25.8703 20.393L25.6133 20.073C25.5668 20.0156 25.5422 19.9445 25.5422 19.8707V19.6492C25.5422 19.6137 25.5859 19.5973 25.6105 19.6219L25.9414 19.9609L25.9496 20.1742C25.9523 20.2152 26.0016 20.2344 26.0289 20.2043L26.4965 19.6984C26.4965 19.6984 26.6332 19.5289 26.4965 19.3895C26.398 19.2883 26.2613 19.1598 26.1738 19.0777C26.1629 19.0677 26.1543 19.0555 26.1485 19.0418C26.1428 19.0281 26.1401 19.0134 26.1406 18.9985C26.1412 18.9837 26.1449 18.9692 26.1516 18.956C26.1582 18.9427 26.1677 18.9311 26.1793 18.9219L26.2695 18.8453L26.6359 18.8508C26.6359 18.8508 26.8766 18.8535 27.057 18.6676C27.2785 18.4406 27.6039 18.0824 27.6039 18.0824C27.6039 18.0824 27.6695 17.8281 27.5164 17.6941C27.3605 17.5602 27.4289 17.3961 27.4289 17.3961L27.6203 17.2293V17.1117H27.1199C27.1199 17.1117 27.1637 16.8465 27.5191 16.8301C27.5656 16.8273 27.6094 16.8273 27.6449 16.8246C27.6813 16.8237 27.7176 16.8301 27.7515 16.8434C27.7853 16.8568 27.8162 16.8768 27.8422 16.9023C27.8682 16.9278 27.8889 16.9583 27.9029 16.9919C27.9169 17.0255 27.924 17.0616 27.9238 17.098V17.5902L27.9977 17.5984C27.9977 17.5984 28.1371 17.6121 28.1891 17.4289C28.1891 17.4289 28.282 17.4016 28.282 17.2895V17.1555L28.148 16.9941L28.3668 16.7152C28.4051 16.666 28.4598 16.6332 28.5199 16.6223L28.632 16.6004C28.6986 16.5879 28.7576 16.5495 28.7961 16.4938L29.302 15.7363C29.3375 15.6816 29.3566 15.6188 29.3566 15.5559V15.348C29.3566 15.3212 29.346 15.2955 29.327 15.2765C29.308 15.2575 29.2823 15.2469 29.2555 15.2469H28.9602C28.9602 15.2469 28.8371 15.102 29.0039 15.0035C29.1215 14.9324 29.3512 14.7438 29.4797 14.6371C29.5371 14.5879 29.6109 14.5605 29.6875 14.5605H30.2836C30.352 14.5605 30.4176 14.5387 30.4723 14.5004L30.8633 14.2215C30.8775 14.2108 30.8948 14.2051 30.9125 14.2051C31.082 14.2051 31.1695 14.4074 31.0547 14.5332L30.65 14.968C30.5953 15.0254 30.5625 15.1047 30.5625 15.184L30.557 15.534C30.557 15.5996 30.609 15.6543 30.6773 15.6543H30.7758L31.3062 15.1129C31.3418 15.0773 31.3664 15.0281 31.3746 14.9789L31.3937 14.8641C31.4211 14.7082 31.5551 14.5934 31.7137 14.5934H31.9461C32.0254 14.5934 32.102 14.566 32.1594 14.5141L32.4848 14.2297C32.5012 14.216 32.5203 14.2078 32.5422 14.2078H32.7117C32.7609 14.2078 32.7992 14.1695 32.7992 14.1203V13.9563C32.7992 13.9316 32.8102 13.9098 32.8266 13.8934L32.9523 13.7758C33.0535 13.6828 33.2012 13.6609 33.3242 13.7266L33.5375 13.8387C33.5895 13.866 33.6551 13.8523 33.6934 13.8059L33.7973 13.6746C33.809 13.6598 33.8172 13.6426 33.8214 13.6242C33.8256 13.6059 33.8256 13.5868 33.8214 13.5684C33.8172 13.55 33.8089 13.5328 33.7971 13.5181C33.7854 13.5033 33.7705 13.4914 33.7535 13.4832L32.7227 12.9773C32.668 12.9582 31.9734 12.9473 31.9242 12.9473ZM17.4812 16.3598L17.4895 16.357C17.5084 16.3493 17.5293 16.3475 17.5493 16.3519C17.5694 16.3563 17.5876 16.3667 17.6016 16.3816L17.8996 16.6934L17.7137 16.852L17.4402 16.5211C17.3965 16.4664 17.4156 16.3844 17.4812 16.3598ZM19.2613 17.85H19.0945C19.0727 17.85 19.0508 17.8473 19.0289 17.8418C18.8484 17.7926 17.9461 17.541 17.7793 17.4645C17.7608 17.4563 17.7446 17.4438 17.7319 17.428C17.7193 17.4122 17.7106 17.3937 17.7065 17.3739C17.7025 17.3541 17.7033 17.3336 17.7088 17.3141C17.7144 17.2947 17.7245 17.2769 17.7383 17.2621L17.9625 17.0242C18.0391 16.9559 18.1594 16.9613 18.2305 17.0352L18.4355 17.2512L18.6133 17.2184L18.5641 17.0898C18.5641 17.0898 18.5422 17.0297 18.5203 16.975C18.4984 16.9203 18.6187 16.852 18.6187 16.852C18.6187 16.852 18.7418 16.841 18.7418 17.0297C18.7418 17.2184 18.9414 17.3605 18.9414 17.3605H19.6223C19.666 17.3605 19.6934 17.407 19.6715 17.4426L19.5512 17.6723C19.4937 17.7816 19.3816 17.85 19.2613 17.85ZM20.1172 16.8301H19.8848L19.7152 16.6988C19.696 16.6851 19.6732 16.6775 19.6496 16.677H19.4281C19.3953 16.677 19.3625 16.6906 19.3379 16.7125L19.1766 16.8547L19.018 16.8793C19.0032 16.8819 18.9881 16.8814 18.9735 16.8779C18.9589 16.8744 18.9452 16.868 18.9332 16.859C18.9211 16.8501 18.9111 16.8388 18.9035 16.8258C18.896 16.8128 18.8912 16.7985 18.8895 16.7836L18.8676 16.6086C18.8621 16.5566 18.8785 16.5074 18.9113 16.4691L19.1738 16.1738L19.2914 16.1656L19.2859 16.2176C19.2777 16.2805 19.327 16.3352 19.3898 16.3352H19.4473C19.5047 16.3352 19.5566 16.3023 19.5785 16.2504L19.6332 16.1328L19.8766 16.1738L19.8984 16.3488C19.9039 16.3871 19.923 16.4227 19.9531 16.4473L20.2238 16.6742V16.7234C20.2238 16.7836 20.1773 16.8301 20.1172 16.8301ZM21.293 17.0188V17.2184H20.8719L20.8363 17.0188C20.8309 16.9914 20.8363 16.9613 20.8527 16.9395L20.8746 16.9094C20.9047 16.8656 20.8992 16.8055 20.8582 16.7699L20.6613 16.5895V16.2586L20.9484 16.1355H21.0961C21.1535 16.1355 21.2027 16.1738 21.2191 16.2285L21.2219 16.2367C21.2328 16.2777 21.2219 16.3188 21.1945 16.3516C21.1787 16.3692 21.1682 16.391 21.1645 16.4145L21.1371 16.5867L21.3695 16.8L21.2027 16.9094L21.293 17.0188Z" fill="#BDCF46"/>
<path d="M27.4393 21.4129L26.444 21.298C26.4185 21.2956 26.3936 21.2891 26.3701 21.2789L26.1295 21.1805C26.094 21.1668 26.0584 21.1422 26.0311 21.1148L25.2299 20.2754C25.2189 20.2644 25.2055 20.2561 25.1909 20.2509C25.1762 20.2457 25.1606 20.2438 25.1451 20.2453C25.0686 20.2563 25.0358 20.3465 25.0877 20.4039L25.9299 21.3473C25.9655 21.3855 26.0092 21.4129 26.0584 21.4293L26.5342 21.5715C26.5615 21.5797 26.5862 21.5824 26.6135 21.5824H27.4283L27.4393 21.4129ZM29.419 21.9434L29.378 22.0582C29.2959 22.2879 29.0662 22.4328 28.8229 22.4027C28.8063 22.4008 28.7904 22.3949 28.7767 22.3853C28.7629 22.3758 28.7518 22.363 28.7442 22.3481C28.7366 22.3332 28.7328 22.3167 28.7332 22.3C28.7336 22.2833 28.7381 22.2669 28.7463 22.2523L28.9514 21.875L28.4182 21.8941C28.3471 21.8969 28.276 21.9133 28.2131 21.9434L28.0135 22.0363C27.9615 22.0609 27.9123 22.0938 27.8713 22.1348L27.4994 22.4957C27.4557 22.5395 27.4037 22.575 27.3463 22.5996L27.0947 22.7117C26.9061 22.7965 26.783 22.9824 26.783 23.1902V23.2285C26.783 23.2996 26.7967 23.368 26.824 23.4336L27.0209 23.8957C27.0264 23.9066 27.0291 23.9148 27.0319 23.9258C27.0647 24.0516 27.2014 24.1254 27.3244 24.0816L27.8276 23.9039C27.8987 23.8793 27.9752 23.8684 28.049 23.8766L28.6506 23.9313C28.8147 23.9449 28.9596 24.0352 29.0471 24.1746L29.0881 24.2375C29.1838 24.3906 29.3506 24.4836 29.5338 24.4836H29.7772C29.9166 24.4836 30.0506 24.4289 30.149 24.3305L30.417 24.0625C30.5155 23.9641 30.5701 23.8301 30.5701 23.6906V23.3406C30.5701 23.193 30.5072 23.0535 30.4006 22.9551L29.851 22.452C29.799 22.4055 29.758 22.348 29.7307 22.2852L29.5666 21.9297C29.5311 21.875 29.4408 21.8777 29.419 21.9434Z" fill="#BDCF46"/>
<path d="M27.0321 21.0082L27.1825 20.7375C27.2098 20.6883 27.2207 20.6336 27.218 20.5789L27.1934 20.2918C27.1879 20.2234 27.1059 20.1879 27.0539 20.2344L26.6329 20.5898C26.6216 20.5989 26.6086 20.6054 26.5946 20.609L26.4059 20.6445C26.3567 20.6527 26.3266 20.702 26.3375 20.7484L26.3758 20.9043C26.3875 20.9511 26.4114 20.9939 26.445 21.0285C26.4786 21.0631 26.5208 21.0881 26.5672 21.1012L26.7122 21.1422C26.8379 21.1777 26.9692 21.123 27.0321 21.0082ZM29.3125 21.6453C29.3536 21.6453 29.3946 21.6371 29.4329 21.618L29.7227 21.4785C29.7254 21.4785 29.7254 21.4785 29.7282 21.4812L29.9415 21.7437C29.9524 21.7574 29.9688 21.7656 29.9879 21.7656H30.1301C30.1793 21.7656 30.2067 21.7109 30.1766 21.6727L29.9551 21.3855L29.8594 21.3062L29.0774 20.918H29.0747L28.8887 20.9918H28.7465C28.7438 20.9918 28.7438 20.9918 28.7438 20.9891L28.6918 20.8195C28.6882 20.8086 28.6813 20.799 28.672 20.7921C28.6627 20.7853 28.6514 20.7815 28.6399 20.7812H28.4485C28.4413 20.7812 28.4342 20.7827 28.4276 20.7854C28.4209 20.7882 28.4149 20.7922 28.4098 20.7973C28.4047 20.8023 28.4007 20.8084 28.398 20.815C28.3952 20.8216 28.3938 20.8288 28.3938 20.8359V21.0027H28.5168V21.052C28.5168 21.1121 28.5633 21.1641 28.6235 21.1723L28.9024 21.2051C28.9024 21.2051 28.9051 21.2051 28.9051 21.2078L29.0555 21.3937C29.102 21.4512 29.0938 21.5906 29.0446 21.648L29.0418 21.6508H29.3125V21.6453ZM29.4739 16.3434L29.3754 16.4309C29.2661 16.5293 29.2004 16.6633 29.184 16.8109C29.1704 16.9477 29.1102 17.0734 29.0145 17.1719C28.875 17.3113 28.7 17.407 28.5114 17.448L28.4731 17.4562L28.3172 17.582C28.3172 17.582 28.2735 17.8035 28.3172 17.8555C28.3364 17.8801 28.4184 17.8746 28.443 17.8555C28.4758 17.8309 28.4786 17.6941 28.4786 17.6941L28.9735 17.5164C28.9735 17.5164 29.0965 17.6777 29.1567 17.6859C29.184 17.6887 29.2442 17.6586 29.2606 17.634C29.3262 17.5437 29.4 17.2129 29.4 17.2129C29.4247 17.1391 29.4411 17.0598 29.4493 16.9832L29.4766 16.6934L29.6981 16.6797L29.7856 16.502L29.5559 16.4801L29.4739 16.3434ZM20.3493 23.1273C20.3493 23.1273 20.4231 23.2723 20.6008 23.2723C20.7786 23.2723 20.8524 23.1273 20.8524 23.1273V22.452C20.8524 22.2551 20.6364 22.1348 20.4696 22.2387C20.3957 22.2852 20.3493 22.3645 20.3493 22.452V23.1273ZM14.7547 11.3559L15.05 11.1836L15.0555 11.1727C15.0656 11.1527 15.0704 11.1305 15.0695 11.1082C15.0685 11.0858 15.0618 11.0641 15.0499 11.0452C15.0381 11.0262 15.0216 11.0106 15.002 10.9999C14.9823 10.9892 14.9603 10.9837 14.9379 10.984H14.2653L14.1942 10.9074C14.1122 10.8145 13.9946 10.7598 13.8715 10.757L12.8707 10.716C12.8051 10.727 12.7395 10.7406 12.6739 10.7516L12.0805 11.0004C12.0313 11.0223 11.9793 11.0332 11.9247 11.0359L10.9731 11.0824C10.902 11.0852 10.8336 11.107 10.7707 11.1398L10.2375 11.4406C10.2288 11.4456 10.2214 11.4527 10.2161 11.4613C10.2107 11.4699 10.2077 11.4796 10.2071 11.4897C10.2066 11.4998 10.2086 11.5098 10.2129 11.5189C10.2173 11.528 10.2239 11.5359 10.2321 11.5418C10.2731 11.5719 10.2594 11.6375 10.2102 11.6484L9.79457 11.7523C9.75356 11.7633 9.73715 11.8098 9.75629 11.8426L9.89575 12.0695C9.90395 12.0832 9.92035 12.0941 9.93676 12.0969L10.6832 12.2254C10.7981 12.2445 10.8993 12.3074 10.9704 12.4004L11.4844 13.0758L11.6348 13.2809C11.6895 13.3547 11.6813 13.4559 11.6211 13.5215L11.5063 13.6418C11.4516 13.6992 11.4407 13.784 11.4762 13.8551L11.8508 14.6043C11.8836 14.6727 11.9465 14.7219 12.0176 14.7437C12.25 14.8121 12.4961 14.6863 12.5782 14.4566L12.6766 14.1777C12.6903 14.1367 12.7204 14.1012 12.7586 14.0766L13.177 13.7211C13.2289 13.6773 13.2891 13.6473 13.352 13.6281L14.0082 13.4504C14.1477 13.4121 14.2598 13.3137 14.3118 13.1797L14.6207 12.4141C14.6672 12.302 14.6645 12.1762 14.618 12.0641L14.5579 11.9219C14.4731 11.7168 14.5551 11.4734 14.7547 11.3559ZM9.28598 12.0203L9.41176 11.7988C9.45551 11.7223 9.51567 11.6621 9.59223 11.6211L10.6258 11.0496L10.5082 10.9156L9.3352 10.8445C9.30239 10.8418 9.26684 10.8445 9.23403 10.85L8.09106 11.0332C8.0227 11.0441 7.95707 11.0687 7.89965 11.1098C7.66996 11.2656 7.62895 11.5883 7.80942 11.7988L8.06645 12.0969C8.15395 12.2008 8.2852 12.2582 8.41918 12.2582H8.87856C9.04809 12.2582 9.20395 12.168 9.28598 12.0203ZM10.5903 14.1066L10.6969 13.9836C10.7243 13.9508 10.7188 13.9016 10.6832 13.8797L10.3497 13.6445L9.18481 12.7832C9.13559 12.7477 9.07817 12.7285 9.01801 12.7285H8.55864C8.48481 12.7285 8.41645 12.7559 8.3645 12.8078L8.12114 13.043C8.10786 13.055 8.09984 13.0718 8.09882 13.0897C8.09779 13.1076 8.10385 13.1252 8.11567 13.1387L8.25239 13.3109C8.26606 13.3301 8.29067 13.341 8.31528 13.3383L8.44653 13.3273C8.48754 13.3246 8.52035 13.3547 8.52309 13.393L8.52856 13.4695C8.52856 13.4805 8.52856 13.4914 8.52309 13.5023L8.46293 13.65C8.452 13.6746 8.45746 13.7047 8.47387 13.7238L8.61879 13.8934C8.63246 13.9098 8.65434 13.9207 8.67621 13.918L8.81567 13.9125C8.85395 13.9098 8.88403 13.8797 8.88403 13.8414V13.5434C8.88403 13.5051 8.9141 13.475 8.94965 13.4723L9.14379 13.4586C9.1602 13.4586 9.17934 13.4613 9.19301 13.4723L9.54848 13.743C9.57582 13.7648 9.58403 13.8004 9.57035 13.8305L9.45278 14.0656C9.44184 14.0875 9.41996 14.1039 9.39262 14.1039L9.28051 14.1121C9.2477 14.1148 9.22309 14.1367 9.21489 14.1668C9.20668 14.2105 9.23676 14.2516 9.28051 14.2543L9.52114 14.2734C9.57035 14.2762 9.61957 14.2953 9.66059 14.3227L10.0844 14.618C10.1118 14.6371 10.1473 14.6344 10.1719 14.6125L10.3059 14.5004C10.3168 14.4922 10.325 14.4785 10.3278 14.4648L10.3715 14.2953C10.377 14.2762 10.3743 14.2543 10.3633 14.2379L10.2184 14.0137L10.2649 14.0055C10.2813 14.0027 10.3004 14.0055 10.3141 14.0137L10.5 14.123C10.5274 14.1395 10.5657 14.134 10.5903 14.1066ZM5.28832 13.2645V13.0211H5.43325L5.64653 13.3191C5.67387 13.3547 5.70668 13.3848 5.7477 13.4066L6.02661 13.5461C6.06489 13.5652 6.10864 13.5762 6.15239 13.5762H7.01645V13.2891L6.69653 13.177L6.32739 12.9801C6.27817 12.9801 6.23168 12.9664 6.19067 12.9445L5.60004 12.6082C5.55845 12.5844 5.51125 12.5721 5.46332 12.5727H5.10785C4.98754 12.5727 4.8809 12.6492 4.84262 12.7641L4.81254 12.8598C4.77973 12.9582 4.80707 13.0703 4.8809 13.1441L5.00668 13.2699H5.28832V13.2645ZM6.51606 12.7887L6.74301 12.6711C6.78129 12.652 6.82504 12.641 6.87153 12.641H6.99457C7.10121 12.641 7.19965 12.7012 7.24614 12.7996L7.33637 12.9855V13.177H6.92621V12.9336L6.75395 12.8461L6.54887 12.8516L6.51606 12.7887ZM7.30082 12.641L7.5059 12.9746L7.66723 13.0703H7.90512L8.14301 12.8187L7.96254 12.5836L7.50043 12.641H7.30082ZM5.97465 12.1324L6.29731 12.2473C6.31918 12.2555 6.33832 12.2637 6.35746 12.2773L6.58168 12.425C6.61996 12.4496 6.66098 12.466 6.70746 12.4687L7.11489 12.5098L7.06567 12.2582L6.57895 11.9902C6.53793 11.9684 6.49145 11.9547 6.44496 11.9547H6.19614L5.97465 12.1324ZM16.3188 14.1887L16.4364 14.3746C16.4473 14.391 16.4473 14.4156 16.4336 14.432L16.3434 14.5551C16.3352 14.5687 16.3297 14.5852 16.3352 14.5988L16.3707 14.7219C16.3735 14.7328 16.3789 14.741 16.3872 14.7465L16.5758 14.8914C16.7043 14.9898 16.7207 15.1785 16.6114 15.2988L16.6086 15.3016C16.5567 15.359 16.4801 15.3945 16.4008 15.3945H16.1766C16.1438 15.3945 16.1192 15.3645 16.1274 15.3316L16.1848 15.1074C16.1875 15.0937 16.1985 15.0801 16.2122 15.0746L16.3133 15.0254C16.3325 15.0172 16.3434 14.9953 16.3407 14.9734L16.3352 14.9133C16.3337 14.9027 16.3289 14.8928 16.3216 14.8849C16.3143 14.8771 16.3047 14.8717 16.2942 14.8695L16.1493 14.8395C16.1384 14.8372 16.1271 14.8387 16.1172 14.8437C16.1073 14.8486 16.0993 14.8568 16.0946 14.8668L16.0618 14.9379C16.0618 14.9406 16.059 14.9434 16.059 14.9461L15.9879 15.1867C15.9825 15.2086 15.9606 15.2223 15.9387 15.2223L15.7118 15.2168C15.6987 15.2168 15.6862 15.2116 15.677 15.2024C15.6677 15.1932 15.6625 15.1806 15.6625 15.1676V14.9105C15.6625 14.8832 15.6844 14.8613 15.7118 14.8613L15.8293 14.8586C15.8457 14.8586 15.8594 14.8504 15.8704 14.8367L15.9797 14.6781C15.9852 14.6699 15.9879 14.659 15.9879 14.648V14.4074C15.9879 14.391 15.9961 14.3773 16.0071 14.3691L16.245 14.1777C16.2668 14.1586 16.3024 14.1641 16.3188 14.1887Z" fill="#BDCF46"/>
<path d="M13.7484 13.8004H13.5652L13.4504 13.9344L13.7648 14.1805C13.8223 14.227 13.8961 14.2461 13.9699 14.2379L14.3281 14.1941V13.9617L14.2598 13.7977L13.8879 13.8934L13.7484 13.8004ZM17.1992 11.8344H17.6723C17.7297 11.8344 17.7844 11.8508 17.8309 11.8836L18.3203 12.2254L18.2547 12.3238L17.8418 12.1133L17.6723 12.4223H17.4891L17.0844 11.9137L17.1992 11.8344ZM18.066 11.4707H18.6785L18.8344 11.5883L18.6785 11.7496H18.3504C18.2902 11.7496 18.2328 11.7305 18.1863 11.6949L18.0086 11.5637L18.066 11.4707ZM6.85781 11.6348L7.2625 11.4844L7.50039 11.6074L7.61797 11.8289L7.47031 11.8562L7.02734 11.9957L6.4668 11.7332L6.85781 11.6348ZM7.85039 12.2992H8.02539L8.11563 12.3977H9.05078L9.12734 12.5098L9.07813 12.6137L8.20859 12.641L8.11016 12.5316L7.96523 12.5098L7.94336 12.4195L7.85039 12.3867V12.2992ZM7.16953 12.3156L7.23789 12.5098L7.41563 12.5234L7.56055 12.3566L7.49766 12.2992L7.23789 12.2773L7.16953 12.3156ZM7.65078 12.0777L7.61797 12.1871L7.75469 12.2309L7.85039 12.1543H7.91055V12.1051L7.79297 12.0559L7.72188 12.0285L7.65078 12.0777ZM8.73633 19.0969L8.90586 19.023H9.35977L9.7125 19.2883C9.7125 19.2883 9.8793 19.3102 9.8793 19.3539C9.8793 19.3977 9.7125 19.4195 9.7125 19.4195H9.46914L9.12734 19.1871L8.9168 19.2199L8.73633 19.1461C8.71445 19.1406 8.71445 19.1078 8.73633 19.0969ZM9.91211 19.5152C9.89297 19.4715 10.0461 19.3812 10.0461 19.3812C10.0461 19.3812 10.2922 19.3184 10.3277 19.3812C10.3469 19.4168 10.2402 19.5152 10.2402 19.5152C10.2402 19.5152 9.94492 19.5918 9.91211 19.5152ZM29.482 24.7707H30.0562L29.7691 25.1043H29.6352L29.482 24.7707Z" fill="#BDCF46"/>
</svg>
